<svg width="66" height="38" viewBox="0 0 66 38" fill="none" xmlns="http://www.w3.org/2000/svg">
<g filter="url(#filter0_i_681_220)">
<rect y="2" width="53.1339" height="32.5" rx="6.5" fill="#971230"/>
</g>
<g filter="url(#filter1_d_681_220)">
<rect x="30.6721" width="34.6412" height="37" rx="7.5" fill="white"/>
</g>
<path d="M42.8014 14.919H46.4734V16.721H42.8014V14.919ZM42.6314 19.203H46.3034V21.005H42.6314V19.203ZM41.1354 12.284H43.3284C43.3284 17.129 42.0704 21.192 36.4264 24.15L35.1854 22.433C39.8264 19.985 41.1354 17.01 41.1354 12.556V12.284ZM36.1204 12.284H42.5124V14.069H36.1204V12.284ZM41.3564 16.143V17.86L35.5764 18.387L35.2874 16.483L41.3564 16.143ZM46.2354 10.771H48.4964V26.513H46.2354V10.771ZM54.34 14.626H55.306V15.648C55.306 17.944 53.864 19.862 51.75 20.632L51.148 19.708C53.052 19.064 54.34 17.426 54.34 15.648V14.626ZM54.564 14.626H55.53V15.648C55.53 17.328 56.846 18.854 58.722 19.47L58.134 20.394C56.034 19.68 54.564 17.832 54.564 15.648V14.626ZM51.456 14.318H58.386V15.256H51.456V14.318ZM60.178 13.45H61.354V20.8H60.178V13.45ZM53.178 21.486H61.354V25.924H53.178V21.486ZM60.206 22.41H54.312V24.986H60.206V22.41Z" fill="black"/>
<defs>
<filter id="filter0_i_681_220" x="0" y="2" width="53.1338" height="34.5" filterUnits="userSpaceOnUse" color-interpolation-filters="sRGB">
<feFlood flood-opacity="0" result="BackgroundImageFix"/>
<feBlend mode="normal" in="SourceGraphic" in2="BackgroundImageFix" result="shape"/>
<feColorMatrix in="SourceAlpha" type="matrix" values="0 0 0 0 0 0 0 0 0 0 0 0 0 0 0 0 0 0 127 0" result="hardAlpha"/>
<feOffset dy="4"/>
<feGaussianBlur stdDeviation="1"/>
<feComposite in2="hardAlpha" operator="arithmetic" k2="-1" k3="1"/>
<feColorMatrix type="matrix" values="0 0 0 0 0 0 0 0 0 0 0 0 0 0 0 0 0 0 0.5 0"/>
<feBlend mode="normal" in2="shape" result="effect1_innerShadow_681_220"/>
</filter>
<filter id="filter1_d_681_220" x="30.6721" y="0" width="34.6411" height="38" filterUnits="userSpaceOnUse" color-interpolation-filters="sRGB">
<feFlood flood-opacity="0" result="BackgroundImageFix"/>
<feColorMatrix in="SourceAlpha" type="matrix" values="0 0 0 0 0 0 0 0 0 0 0 0 0 0 0 0 0 0 127 0" result="hardAlpha"/>
<feOffset dy="1"/>
<feComposite in2="hardAlpha" operator="out"/>
<feColorMatrix type="matrix" values="0 0 0 0 0 0 0 0 0 0 0 0 0 0 0 0 0 0 0.25 0"/>
<feBlend mode="normal" in2="BackgroundImageFix" result="effect1_dropShadow_681_220"/>
<feBlend mode="normal" in="SourceGraphic" in2="effect1_dropShadow_681_220" result="shape"/>
</filter>
</defs>
</svg>
