<svg width="261" height="25" viewBox="0 0 261 25" fill="none" xmlns="http://www.w3.org/2000/svg">
<path d="M64.1996 6.249H65.2786V18.027H64.1996V6.249ZM59.0776 7.159C60.8196 7.159 62.0676 8.758 62.0676 11.254C62.0676 13.763 60.8196 15.362 59.0776 15.362C57.3486 15.362 56.1006 13.763 56.1006 11.254C56.1006 8.758 57.3486 7.159 59.0776 7.159ZM59.0776 8.134C57.9336 8.134 57.1276 9.356 57.1276 11.254C57.1276 13.165 57.9336 14.413 59.0776 14.413C60.2346 14.413 61.0276 13.165 61.0276 11.254C61.0276 9.356 60.2346 8.134 59.0776 8.134ZM75.4052 9.525H78.0182V10.396H75.4052V9.525ZM75.3142 12.476H77.9922V13.347H75.3142V12.476ZM79.7992 6.262H80.8392V18.014H79.7992V6.262ZM77.4462 6.561H78.4602V17.416H77.4462V6.561ZM74.8202 7.744H75.8602C75.8602 10.825 74.6252 13.594 71.4662 15.479L70.8422 14.712C73.5852 13.048 74.8202 10.708 74.8202 7.939V7.744ZM71.3622 7.744H75.2492V8.628H71.3622V7.744ZM85.8302 7.666H86.7142V8.355C86.7142 10.422 85.3622 12.099 83.3992 12.749L82.8662 11.904C84.6082 11.345 85.8302 9.954 85.8302 8.355V7.666ZM86.0252 7.666H86.9092V8.355C86.9092 9.85 88.0792 11.176 89.7952 11.709L89.2882 12.554C87.3382 11.93 86.0252 10.318 86.0252 8.355V7.666ZM83.2172 7.341H89.5092V8.238H83.2172V7.341ZM85.8302 12.255H86.9092V14.985H85.8302V12.255ZM91.5242 11.137H93.6952V12.047H91.5242V11.137ZM90.7572 6.262H91.8362V18.014H90.7572V6.262ZM82.8142 15.557L82.6712 14.66C84.7382 14.66 87.5982 14.66 90.0162 14.309L90.1072 15.115C87.5982 15.557 84.8422 15.57 82.8142 15.557ZM102.242 15.1782C102.242 15.009 102.204 14.8524 102.128 14.7085C102.056 14.5604 101.905 14.4271 101.677 14.3086C101.453 14.1859 101.114 14.0801 100.661 13.9912C100.28 13.9108 99.9355 13.8156 99.6266 13.7056C99.3219 13.5955 99.0616 13.4622 98.8458 13.3057C98.6342 13.1491 98.4713 12.965 98.3571 12.7534C98.2428 12.5418 98.1857 12.2943 98.1857 12.0107C98.1857 11.7399 98.2449 11.4839 98.3634 11.2427C98.4861 11.0015 98.6575 10.7878 98.8776 10.6016C99.1018 10.4154 99.3706 10.2694 99.6837 10.1636C99.9969 10.0578 100.346 10.0049 100.731 10.0049C101.281 10.0049 101.751 10.1022 102.14 10.2969C102.53 10.4915 102.828 10.7518 103.035 11.0776C103.243 11.3993 103.346 11.7568 103.346 12.1504H102.172C102.172 11.96 102.115 11.7759 102.001 11.5981C101.891 11.4162 101.728 11.266 101.512 11.1475C101.3 11.029 101.04 10.9697 100.731 10.9697C100.405 10.9697 100.141 11.0205 99.9376 11.1221C99.7387 11.2194 99.5927 11.3442 99.4996 11.4966C99.4108 11.6489 99.3663 11.8097 99.3663 11.979C99.3663 12.106 99.3875 12.2202 99.4298 12.3218C99.4764 12.4191 99.5568 12.5101 99.671 12.5947C99.7853 12.6751 99.9461 12.7513 100.153 12.8232C100.361 12.8952 100.625 12.9671 100.947 13.0391C101.51 13.166 101.973 13.3184 102.337 13.4961C102.701 13.6738 102.972 13.8918 103.15 14.1499C103.327 14.408 103.416 14.7212 103.416 15.0894C103.416 15.3898 103.353 15.6649 103.226 15.9146C103.103 16.1642 102.923 16.38 102.686 16.562C102.453 16.7397 102.174 16.8794 101.848 16.981C101.527 17.0783 101.165 17.127 100.763 17.127C100.158 17.127 99.6456 17.019 99.2267 16.8032C98.8077 16.5874 98.4904 16.3081 98.2745 15.9653C98.0587 15.6226 97.9508 15.2607 97.9508 14.8799H99.1315C99.1484 15.2015 99.2415 15.4575 99.4108 15.6479C99.58 15.8341 99.7874 15.9674 100.033 16.0479C100.278 16.124 100.522 16.1621 100.763 16.1621C101.084 16.1621 101.353 16.1198 101.569 16.0352C101.789 15.9505 101.956 15.8341 102.07 15.686C102.185 15.5379 102.242 15.3687 102.242 15.1782ZM109.008 15.8257V12.29C109.008 12.0192 108.953 11.7843 108.843 11.5854C108.738 11.3823 108.577 11.2257 108.361 11.1157C108.145 11.0057 107.879 10.9507 107.561 10.9507C107.265 10.9507 107.005 11.0015 106.78 11.103C106.56 11.2046 106.387 11.3379 106.26 11.5029C106.137 11.668 106.076 11.8457 106.076 12.0361H104.901C104.901 11.7907 104.965 11.5474 105.092 11.3062C105.219 11.0649 105.401 10.847 105.638 10.6523C105.879 10.4535 106.167 10.2969 106.501 10.1826C106.84 10.0641 107.216 10.0049 107.631 10.0049C108.13 10.0049 108.57 10.0895 108.951 10.2588C109.336 10.4281 109.637 10.6841 109.853 11.0269C110.073 11.3654 110.183 11.7907 110.183 12.3027V15.502C110.183 15.7305 110.202 15.9738 110.24 16.2319C110.282 16.4901 110.344 16.7122 110.424 16.8984V17H109.199C109.14 16.8646 109.093 16.6847 109.059 16.4604C109.025 16.2319 109.008 16.0203 109.008 15.8257ZM109.212 12.8359L109.224 13.6611H108.037C107.703 13.6611 107.405 13.6886 107.142 13.7437C106.88 13.7944 106.66 13.8727 106.482 13.9785C106.304 14.0843 106.169 14.2176 106.076 14.3784C105.983 14.535 105.936 14.7191 105.936 14.9307C105.936 15.1465 105.985 15.3433 106.082 15.521C106.179 15.6987 106.325 15.8405 106.52 15.9463C106.719 16.0479 106.962 16.0986 107.25 16.0986C107.61 16.0986 107.927 16.0225 108.202 15.8701C108.477 15.7178 108.695 15.5316 108.856 15.3115C109.021 15.0915 109.11 14.8778 109.123 14.6704L109.624 15.2354C109.595 15.4131 109.514 15.6099 109.383 15.8257C109.252 16.0415 109.076 16.2489 108.856 16.4478C108.64 16.6424 108.382 16.8053 108.082 16.9365C107.785 17.0635 107.451 17.127 107.079 17.127C106.613 17.127 106.205 17.036 105.854 16.854C105.507 16.672 105.236 16.4287 105.041 16.124C104.851 15.8151 104.755 15.4702 104.755 15.0894C104.755 14.7212 104.827 14.3975 104.971 14.1182C105.115 13.8346 105.323 13.5998 105.593 13.4136C105.864 13.2231 106.19 13.0793 106.571 12.9819C106.952 12.8846 107.377 12.8359 107.847 12.8359H109.212ZM113.782 17H112.608V9.4082C112.608 8.91309 112.696 8.49626 112.874 8.15771C113.056 7.81494 113.316 7.5568 113.655 7.3833C113.993 7.20557 114.395 7.1167 114.861 7.1167C114.996 7.1167 115.132 7.12516 115.267 7.14209C115.407 7.15902 115.542 7.18441 115.673 7.21826L115.61 8.17676C115.521 8.1556 115.42 8.14079 115.305 8.13232C115.195 8.12386 115.085 8.11963 114.975 8.11963C114.726 8.11963 114.51 8.17041 114.328 8.27197C114.15 8.3693 114.015 8.51318 113.922 8.70361C113.828 8.89404 113.782 9.12891 113.782 9.4082V17ZM115.242 10.1318V11.0332H111.522V10.1318H115.242ZM119.247 17.127C118.769 17.127 118.335 17.0465 117.946 16.8857C117.561 16.7207 117.229 16.4901 116.949 16.1938C116.674 15.8976 116.463 15.5464 116.315 15.1401C116.166 14.7339 116.092 14.2896 116.092 13.8071V13.5405C116.092 12.9819 116.175 12.4847 116.34 12.0488C116.505 11.6087 116.729 11.2363 117.013 10.9316C117.296 10.627 117.618 10.3963 117.978 10.2397C118.337 10.0832 118.71 10.0049 119.095 10.0049C119.586 10.0049 120.009 10.0895 120.364 10.2588C120.724 10.4281 121.018 10.665 121.247 10.9697C121.475 11.2702 121.644 11.6257 121.755 12.0361C121.865 12.4424 121.92 12.8867 121.92 13.3691V13.896H116.791V12.9375H120.745V12.8486C120.728 12.5439 120.665 12.2477 120.555 11.96C120.449 11.6722 120.28 11.4352 120.047 11.249C119.814 11.0628 119.497 10.9697 119.095 10.9697C118.828 10.9697 118.583 11.0269 118.359 11.1411C118.134 11.2511 117.942 11.4162 117.781 11.6362C117.62 11.8563 117.495 12.125 117.406 12.4424C117.318 12.7598 117.273 13.1258 117.273 13.5405V13.8071C117.273 14.133 117.318 14.4398 117.406 14.7275C117.499 15.0111 117.633 15.2607 117.806 15.4766C117.984 15.6924 118.198 15.8617 118.447 15.9844C118.701 16.1071 118.989 16.1685 119.311 16.1685C119.725 16.1685 120.077 16.0838 120.364 15.9146C120.652 15.7453 120.904 15.5189 121.12 15.2354L121.831 15.8003C121.683 16.0246 121.494 16.2383 121.266 16.4414C121.037 16.6445 120.756 16.8096 120.422 16.9365C120.091 17.0635 119.7 17.127 119.247 17.127ZM129.226 12.0425V13.147H122.891V12.0425H129.226ZM126.649 9.34473V16.0732H125.474V9.34473H126.649ZM141.667 6.262H142.746V13.191H141.667V6.262ZM142.291 9.265H144.462V10.162H142.291V9.265ZM135.141 13.724H142.746V16.103H136.22V17.351H135.167V15.388H141.693V14.491H135.141V13.724ZM135.167 17.117H143.201V17.884H135.167V17.117ZM136.714 11.085H137.793V12.58H136.714V11.085ZM133.698 12.931L133.568 12.138C135.661 12.138 138.547 12.125 140.965 11.787L141.056 12.476C138.547 12.918 135.752 12.931 133.698 12.931ZM133.867 7.159H140.614V7.926H133.867V7.159ZM137.247 8.29C138.911 8.29 139.977 8.862 139.977 9.837C139.977 10.812 138.911 11.384 137.247 11.384C135.57 11.384 134.504 10.812 134.504 9.837C134.504 8.862 135.57 8.29 137.247 8.29ZM137.247 9.005C136.194 9.005 135.518 9.317 135.518 9.837C135.518 10.357 136.194 10.682 137.247 10.682C138.3 10.682 138.963 10.357 138.963 9.837C138.963 9.317 138.3 9.005 137.247 9.005ZM136.714 6.145H137.793V7.562H136.714V6.145ZM148.556 6.925H149.453V8.134C149.453 10.409 148.166 12.268 146.151 13.022L145.592 12.138C147.386 11.501 148.556 9.928 148.556 8.134V6.925ZM148.751 6.925H149.635V8.095C149.635 9.759 150.779 11.228 152.495 11.826L151.91 12.671C150.012 11.956 148.751 10.227 148.751 8.095V6.925ZM154.185 6.262H155.264V13.217H154.185V6.262ZM151.403 13.555C153.821 13.555 155.316 14.374 155.316 15.778C155.316 17.182 153.821 17.988 151.403 17.988C148.972 17.988 147.477 17.182 147.477 15.778C147.477 14.374 148.972 13.555 151.403 13.555ZM151.403 14.413C149.635 14.413 148.556 14.92 148.556 15.778C148.556 16.636 149.635 17.143 151.403 17.143C153.171 17.143 154.25 16.636 154.25 15.778C154.25 14.92 153.171 14.413 151.403 14.413ZM151.637 8.745H154.419V9.642H151.637V8.745ZM160.606 13.269H161.685V15.18H160.606V13.269ZM165.546 6.262H166.625V18.014H165.546V6.262ZM166.274 11.254H168.445V12.164H166.274V11.254ZM157.577 15.778L157.421 14.881C159.527 14.881 162.4 14.855 164.831 14.504L164.922 15.31C162.387 15.765 159.631 15.778 157.577 15.778ZM157.616 7.679H164.649V8.55H157.616V7.679ZM161.139 9.239C162.777 9.239 163.908 10.097 163.908 11.41C163.908 12.736 162.777 13.581 161.139 13.581C159.501 13.581 158.383 12.736 158.383 11.41C158.383 10.097 159.501 9.239 161.139 9.239ZM161.139 10.071C160.086 10.071 159.397 10.604 159.397 11.41C159.397 12.216 160.086 12.749 161.139 12.749C162.192 12.749 162.894 12.216 162.894 11.41C162.894 10.604 162.192 10.071 161.139 10.071ZM160.606 6.275H161.685V8.264H160.606V6.275ZM177.479 6.262H178.558V18.014H177.479V6.262ZM178.298 11.085H180.482V11.995H178.298V11.085ZM169.458 8.134H176.387V9.018H169.458V8.134ZM172.968 9.993C174.632 9.993 175.828 11.111 175.828 12.697C175.828 14.283 174.632 15.401 172.968 15.401C171.317 15.401 170.108 14.283 170.108 12.697C170.108 11.111 171.317 9.993 172.968 9.993ZM172.968 10.89C171.902 10.89 171.135 11.631 171.135 12.697C171.135 13.75 171.902 14.504 172.968 14.504C174.034 14.504 174.801 13.75 174.801 12.697C174.801 11.631 174.034 10.89 172.968 10.89ZM172.409 6.405H173.488V8.537H172.409V6.405ZM190.036 6.262H191.115V18.014H190.036V6.262ZM186.591 7.523H187.657C187.657 10.929 186.123 13.906 182.197 15.83L181.625 14.959C185.018 13.321 186.591 10.825 186.591 7.705V7.523ZM182.158 7.523H187.059V8.407H182.158V7.523Z" fill="#0C8888"/>
<rect x="0.5" y="0.5" width="260" height="24" rx="12" stroke="#349594"/>
</svg>
