<svg width="66" height="38" viewBox="0 0 66 38" fill="none" xmlns="http://www.w3.org/2000/svg">
<g filter="url(#filter0_i_147_342)">
<rect x="12" y="2" width="53.1339" height="32.5" rx="6.5" fill="#E3E5E6"/>
</g>
<g filter="url(#filter1_d_147_342)">
<rect width="34.6412" height="37" rx="7.5" fill="#292929"/>
</g>
<path d="M14.4612 10.771H16.7392V26.513H14.4612V10.771ZM11.4352 16.585H15.0222V18.387H11.4352V16.585ZM6.18224 12.369H8.29024C8.29024 16.738 7.88224 20.087 5.09424 23.215L3.32624 21.94C5.75724 19.254 6.18224 16.636 6.18224 12.641V12.369ZM4.02324 12.369H7.06624V14.205H4.02324V12.369ZM10.4832 12.369H12.5912C12.5912 16.942 12.2172 20.801 9.48024 24.218L7.71224 22.96C10.0922 19.951 10.4832 16.925 10.4832 12.624V12.369ZM8.78324 12.369H11.4182V14.205H8.78324V12.369ZM22.6679 14.626H23.6339V15.648C23.6339 17.944 22.1919 19.862 20.0779 20.632L19.4759 19.708C21.3799 19.064 22.6679 17.426 22.6679 15.648V14.626ZM22.8919 14.626H23.8579V15.648C23.8579 17.328 25.1739 18.854 27.0499 19.47L26.4619 20.394C24.3619 19.68 22.8919 17.832 22.8919 15.648V14.626ZM19.7839 14.318H26.7139V15.256H19.7839V14.318ZM28.5059 13.45H29.6819V20.8H28.5059V13.45ZM21.5059 21.486H29.6819V25.924H21.5059V21.486ZM28.5339 22.41H22.6399V24.986H28.5339V22.41Z" fill="#FFFBFB"/>
<defs>
<filter id="filter0_i_147_342" x="12" y="2" width="53.1338" height="34.5" filterUnits="userSpaceOnUse" color-interpolation-filters="sRGB">
<feFlood flood-opacity="0" result="BackgroundImageFix"/>
<feBlend mode="normal" in="SourceGraphic" in2="BackgroundImageFix" result="shape"/>
<feColorMatrix in="SourceAlpha" type="matrix" values="0 0 0 0 0 0 0 0 0 0 0 0 0 0 0 0 0 0 127 0" result="hardAlpha"/>
<feOffset dy="4"/>
<feGaussianBlur stdDeviation="1"/>
<feComposite in2="hardAlpha" operator="arithmetic" k2="-1" k3="1"/>
<feColorMatrix type="matrix" values="0 0 0 0 0 0 0 0 0 0 0 0 0 0 0 0 0 0 0.5 0"/>
<feBlend mode="normal" in2="shape" result="effect1_innerShadow_147_342"/>
</filter>
<filter id="filter1_d_147_342" x="0" y="0" width="34.6411" height="38" filterUnits="userSpaceOnUse" color-interpolation-filters="sRGB">
<feFlood flood-opacity="0" result="BackgroundImageFix"/>
<feColorMatrix in="SourceAlpha" type="matrix" values="0 0 0 0 0 0 0 0 0 0 0 0 0 0 0 0 0 0 127 0" result="hardAlpha"/>
<feOffset dy="1"/>
<feComposite in2="hardAlpha" operator="out"/>
<feColorMatrix type="matrix" values="0 0 0 0 0 0 0 0 0 0 0 0 0 0 0 0 0 0 0.25 0"/>
<feBlend mode="normal" in2="BackgroundImageFix" result="effect1_dropShadow_147_342"/>
<feBlend mode="normal" in="SourceGraphic" in2="effect1_dropShadow_147_342" result="shape"/>
</filter>
</defs>
</svg>
