<svg width="328" height="63" viewBox="0 0 328 63" fill="none" xmlns="http://www.w3.org/2000/svg">
<path d="M26.909 21.893H28.5275V39.521H26.909V21.893ZM28.1375 29.1275H31.4135V30.4925H28.1375V29.1275ZM14.8775 24.701H25.271V26.027H14.8775V24.701ZM20.1425 27.4895C22.6385 27.4895 24.4325 29.1665 24.4325 31.5455C24.4325 33.9245 22.6385 35.6015 20.1425 35.6015C17.666 35.6015 15.8525 33.9245 15.8525 31.5455C15.8525 29.1665 17.666 27.4895 20.1425 27.4895ZM20.1425 28.835C18.5435 28.835 17.393 29.9465 17.393 31.5455C17.393 33.125 18.5435 34.256 20.1425 34.256C21.7415 34.256 22.892 33.125 22.892 31.5455C22.892 29.9465 21.7415 28.835 20.1425 28.835ZM19.304 22.1075H20.9225V25.3055H19.304V22.1075ZM46.0175 28.913H49.274V30.278H46.0175V28.913ZM44.828 21.8735H46.466V39.521H44.828V21.8735ZM33.596 23.609H35.2145V34.529H33.596V23.609ZM33.596 33.6905H35C37.613 33.6905 40.2845 33.515 43.19 32.9105L43.385 34.256C40.382 34.88 37.6715 35.0555 35 35.0555H33.596V33.6905Z" fill="#767676"/>
<rect x="0.5" y="0.5" width="327" height="62" rx="3.5" stroke="#DDDEE4"/>
<path fill-rule="evenodd" clip-rule="evenodd" d="M309.06 34.7803C308.911 34.9209 308.71 34.9999 308.5 34.9999C308.29 34.9999 308.089 34.9209 307.94 34.7803L303.462 30.5375C303.386 30.4683 303.326 30.3856 303.284 30.2941C303.243 30.2026 303.221 30.1041 303.22 30.0046C303.219 29.905 303.239 29.8062 303.279 29.714C303.319 29.6219 303.378 29.5381 303.452 29.4677C303.526 29.3973 303.615 29.3416 303.712 29.3039C303.809 29.2662 303.914 29.2472 304.019 29.2481C304.124 29.2489 304.228 29.2696 304.324 29.3089C304.421 29.3482 304.508 29.4054 304.581 29.477L308.5 33.1895L312.419 29.477C312.568 29.3404 312.768 29.2648 312.976 29.2665C313.183 29.2682 313.382 29.3471 313.529 29.4861C313.675 29.6252 313.759 29.8133 313.76 30.01C313.762 30.2066 313.682 30.3961 313.538 30.5375L309.06 34.7803Z" fill="#666666"/>
</svg>
