<svg width="56" height="56" viewBox="0 0 56 56" fill="none" xmlns="http://www.w3.org/2000/svg">
<circle cx="28" cy="28" r="27.5" fill="#F47F72" stroke="#910119"/>
<path d="M11.2857 12.5698H44.7143C45.7373 12.5698 46.7184 12.9762 47.4417 13.6996C48.1651 14.4229 48.5714 15.404 48.5714 16.427V39.5698C48.5717 40.0765 48.4721 40.5782 48.2783 41.0464C48.0846 41.5146 47.8005 41.94 47.4423 42.2983C47.0841 42.6567 46.6588 42.941 46.1908 43.1349C45.7227 43.3289 45.221 43.4287 44.7143 43.4287H11.2857C10.2628 43.4287 9.28167 43.0223 8.55832 42.299C7.83497 41.5756 7.42859 40.5945 7.42859 39.5715V16.4287C7.42859 15.4057 7.83497 14.4246 8.55832 13.7013C9.28167 12.9779 10.2628 12.5698 11.2857 12.5698ZM23.3337 21.515C23.09 21.2879 22.7676 21.1642 22.4345 21.1701C22.1015 21.176 21.7837 21.3109 21.5481 21.5465C21.3125 21.782 21.1776 22.0998 21.1717 22.4329C21.1658 22.766 21.2895 23.0884 21.5166 23.3321L26.1794 27.995L21.5149 32.6664C21.2808 32.909 21.1513 33.2338 21.1544 33.5709C21.1575 33.9081 21.2929 34.2305 21.5314 34.4687C21.7699 34.707 22.0924 34.8421 22.4295 34.8448C22.7666 34.8476 23.0914 34.7179 23.3337 34.4835L27.9966 29.8155L32.6663 34.4835C32.91 34.7106 33.2324 34.8343 33.5655 34.8284C33.8986 34.8225 34.2164 34.6876 34.4519 34.452C34.6875 34.2165 34.8224 33.8987 34.8283 33.5656C34.8342 33.2325 34.7106 32.9101 34.4834 32.6664L29.8154 27.9967L34.4834 23.3424C34.603 23.2231 34.6979 23.0814 34.7626 22.9254C34.8274 22.7694 34.8608 22.6022 34.861 22.4333C34.8612 22.2644 34.8281 22.0972 34.7636 21.9411C34.6991 21.785 34.6045 21.6431 34.4852 21.5235C34.3658 21.404 34.2242 21.3091 34.0682 21.2443C33.9122 21.1796 33.745 21.1461 33.5761 21.146C33.4072 21.1458 33.2399 21.1789 33.0838 21.2434C32.9277 21.3079 32.7858 21.4025 32.6663 21.5218L27.9966 26.1778L23.3337 21.515Z" fill="#111111"/>
<path d="M19.6389 6.54591C19.4855 8.55562 17.9428 12.63 13 12.8497" stroke="white" stroke-linecap="round"/>
<path d="M43.6943 12.7021C41.6943 12.9521 37.3943 12.2521 36.1943 7.45215" stroke="white" stroke-linecap="round"/>
<circle cx="18.9443" cy="17.2021" r="3.25" fill="#D9D9D9" stroke="white"/>
<circle cx="36.9443" cy="17.2021" r="3.25" fill="#D9D9D9" stroke="white"/>
<path d="M13.6943 17.2021C13.6943 18.2021 13.9943 20.2021 15.1943 20.2021" stroke="white" stroke-linecap="round"/>
<path d="M42.1943 17.2021C42.4443 18.2021 42.6443 20.2021 41.4443 20.2021" stroke="white" stroke-linecap="round"/>
</svg>
