<svg width="48" height="48" viewBox="0 0 48 48" fill="none" xmlns="http://www.w3.org/2000/svg">
<circle cx="24" cy="24" r="23.5" fill="#EC9B05" stroke="#F5DFC7"/>
<path d="M27.9667 13.5349L37.4598 29.3463C38.824 31.6172 38.154 34.605 35.9624 36.0188C35.2268 36.4951 34.3694 36.7489 33.4931 36.7498H14.5055C11.9258 36.7498 9.83337 34.5823 9.83337 31.9062C9.83337 31.001 10.0785 30.1155 10.5389 29.3463L20.0334 13.5349C21.3962 11.264 24.2777 10.5684 26.4693 11.9822C27.0756 12.3732 27.5885 12.9045 27.9667 13.5349ZM24 31.0831C24.3758 31.0831 24.7361 30.9339 25.0018 30.6682C25.2674 30.4025 25.4167 30.0422 25.4167 29.6665C25.4167 29.2907 25.2674 28.9304 25.0018 28.6647C24.7361 28.3991 24.3758 28.2498 24 28.2498C23.6243 28.2498 23.264 28.3991 22.9983 28.6647C22.7326 28.9304 22.5834 29.2907 22.5834 29.6665C22.5834 30.0422 22.7326 30.4025 22.9983 30.6682C23.264 30.9339 23.6243 31.0831 24 31.0831ZM24 18.3331C23.6243 18.3331 23.264 18.4824 22.9983 18.7481C22.7326 19.0137 22.5834 19.3741 22.5834 19.7498V25.4165C22.5834 25.7922 22.7326 26.1525 22.9983 26.4182C23.264 26.6839 23.6243 26.8331 24 26.8331C24.3758 26.8331 24.7361 26.6839 25.0018 26.4182C25.2674 26.1525 25.4167 25.7922 25.4167 25.4165V19.7498C25.4167 19.3741 25.2674 19.0137 25.0018 18.7481C24.7361 18.4824 24.3758 18.3331 24 18.3331Z" fill="white"/>
<circle cx="15.1305" cy="13.6522" r="2.21739" fill="white"/>
<path d="M17.0753 8.32982C17.1753 8.50302 17.1843 8.74262 17.1023 9.04861C17.0312 9.35753 16.9086 9.67312 16.7344 9.9954C16.5711 10.3206 16.411 10.5793 16.2541 10.7715C15.964 11.133 15.601 11.5043 15.1651 11.8853C14.7361 12.2622 14.3068 12.5747 13.8773 12.8227C12.9974 13.3307 12.1461 13.6883 11.3234 13.8954C10.5077 14.0985 9.77412 14.1479 9.12271 14.0436C8.91322 14.0167 8.66026 13.9226 8.36384 13.7612C8.06742 13.5998 7.86721 13.429 7.76321 13.2489C7.71921 13.1727 7.71532 13.0779 7.75153 12.9646C7.78481 12.8623 7.83955 12.7891 7.91576 12.7451C7.9989 12.6971 8.10551 12.6817 8.23557 12.699C8.36271 12.7272 8.52863 12.7746 8.73334 12.8412C9.01747 12.9173 9.15954 12.9554 9.15954 12.9554C9.50417 13.0243 10.1128 12.9824 10.9853 12.8297C11.5772 12.7189 12.2611 12.4395 13.0371 11.9915C13.7368 11.5875 14.3835 11.0756 14.9771 10.4557C15.5816 9.83879 15.9627 9.29084 16.1203 8.81185L16.1874 8.49601C16.2446 8.19509 16.3113 8.02263 16.3875 7.97863C16.5053 7.91063 16.6254 7.91059 16.7477 7.97852C16.8701 8.04644 16.9793 8.16354 17.0753 8.32982Z" fill="white"/>
<circle cx="33.6087" cy="13.6522" r="2.21739" fill="white"/>
<path d="M40.0138 13.1356C39.9138 13.3088 39.7109 13.4364 39.4049 13.5183C39.1018 13.6113 38.7672 13.6629 38.401 13.6731C38.0377 13.6943 37.7336 13.6851 37.4887 13.6453C37.0306 13.5748 36.5276 13.446 35.9796 13.259C35.4387 13.076 34.9534 12.8605 34.5239 12.6125C33.644 12.1045 32.9087 11.546 32.318 10.9371C31.7343 10.3322 31.3247 9.7216 31.0893 9.10533C31.0078 8.91048 30.9628 8.64435 30.9544 8.30693C30.946 7.96952 30.9938 7.71074 31.0978 7.53061C31.1418 7.4544 31.2219 7.40365 31.3381 7.37837C31.4434 7.35602 31.5341 7.36684 31.6104 7.41084C31.6935 7.45884 31.7601 7.54348 31.8102 7.66476C31.8493 7.78897 31.8912 7.95636 31.9359 8.16693C32.0121 8.45106 32.0501 8.59313 32.0501 8.59313C32.1628 8.92604 32.5033 9.43214 33.0719 10.1114C33.4638 10.5686 34.0477 11.0212 34.8237 11.4692C35.5234 11.8732 36.2901 12.1773 37.1237 12.3814C37.9602 12.5965 38.6253 12.6526 39.1189 12.5496L39.426 12.4497C39.7152 12.3488 39.8979 12.3204 39.9741 12.3644C40.0919 12.4324 40.152 12.5363 40.1543 12.6763C40.1567 12.8162 40.1098 12.9693 40.0138 13.1356Z" fill="white"/>
</svg>
