<svg width="48" height="48" viewBox="0 0 48 48" fill="none" xmlns="http://www.w3.org/2000/svg">
<circle cx="24" cy="24" r="23.5" fill="#9FC75D" stroke="white"/>
<path fill-rule="evenodd" clip-rule="evenodd" d="M18.75 14.75C18.75 13.8217 19.1187 12.9315 19.7751 12.2751C20.4315 11.6187 21.3217 11.25 22.25 11.25H25.75C26.6783 11.25 27.5685 11.6187 28.2249 12.2751C28.8813 12.9315 29.25 13.8217 29.25 14.75V21.75H36.25C37.1783 21.75 38.0685 22.1187 38.7249 22.7751C39.3813 23.4315 39.75 24.3217 39.75 25.25V28.75C39.75 29.6783 39.3813 30.5685 38.7249 31.2249C38.0685 31.8813 37.1783 32.25 36.25 32.25H29.25V39.25C29.25 40.1783 28.8813 41.0685 28.2249 41.7249C27.5685 42.3813 26.6783 42.75 25.75 42.75H22.25C21.3217 42.75 20.4315 42.3813 19.7751 41.7249C19.1187 41.0685 18.75 40.1783 18.75 39.25V32.25H11.75C10.8217 32.25 9.9315 31.8813 9.27513 31.2249C8.61875 30.5685 8.25 29.6783 8.25 28.75V25.25C8.25 24.3217 8.61875 23.4315 9.27513 22.7751C9.9315 22.1187 10.8217 21.75 11.75 21.75H18.75V14.75Z" fill="white"/>
<path d="M6.08 15.088C6.08 14.888 6.192 14.676 6.416 14.452C6.632 14.22 6.896 14.008 7.208 13.816C7.512 13.616 7.78 13.472 8.012 13.384C8.444 13.216 8.944 13.076 9.512 12.964C10.072 12.852 10.6 12.796 11.096 12.796C12.112 12.796 13.028 12.912 13.844 13.144C14.652 13.376 15.312 13.7 15.824 14.116C15.992 14.244 16.164 14.452 16.34 14.74C16.516 15.028 16.604 15.276 16.604 15.484C16.604 15.572 16.56 15.656 16.472 15.736C16.392 15.808 16.308 15.844 16.22 15.844C16.124 15.844 16.024 15.804 15.92 15.724C15.824 15.636 15.704 15.512 15.56 15.352C15.352 15.144 15.248 15.04 15.248 15.04C14.984 14.808 14.436 14.54 13.604 14.236C13.036 14.036 12.304 13.936 11.408 13.936C10.6 13.936 9.784 14.056 8.96 14.296C8.128 14.528 7.524 14.812 7.148 15.148L6.932 15.388C6.732 15.62 6.588 15.736 6.5 15.736C6.364 15.736 6.26 15.676 6.188 15.556C6.116 15.436 6.08 15.28 6.08 15.088Z" fill="white"/>
<path d="M31.08 15.088C31.08 14.888 31.192 14.676 31.416 14.452C31.632 14.22 31.896 14.008 32.208 13.816C32.512 13.616 32.78 13.472 33.012 13.384C33.444 13.216 33.944 13.076 34.512 12.964C35.072 12.852 35.6 12.796 36.096 12.796C37.112 12.796 38.028 12.912 38.844 13.144C39.652 13.376 40.312 13.7 40.824 14.116C40.992 14.244 41.164 14.452 41.34 14.74C41.516 15.028 41.604 15.276 41.604 15.484C41.604 15.572 41.56 15.656 41.472 15.736C41.392 15.808 41.308 15.844 41.22 15.844C41.124 15.844 41.024 15.804 40.92 15.724C40.824 15.636 40.704 15.512 40.56 15.352C40.352 15.144 40.248 15.04 40.248 15.04C39.984 14.808 39.436 14.54 38.604 14.236C38.036 14.036 37.304 13.936 36.408 13.936C35.6 13.936 34.784 14.056 33.96 14.296C33.128 14.528 32.524 14.812 32.148 15.148L31.932 15.388C31.732 15.62 31.588 15.736 31.5 15.736C31.364 15.736 31.26 15.676 31.188 15.556C31.116 15.436 31.08 15.28 31.08 15.088Z" fill="white"/>
</svg>
