<svg width="47" height="14" viewBox="0 0 47 14" fill="none" xmlns="http://www.w3.org/2000/svg">
<path d="M8.184 1.956H9.78V7.776H8.184V1.956ZM0.756 2.568H6.624V3.816H0.756V2.568ZM0.624 7.668L0.48 6.384C2.34 6.384 4.8 6.372 6.768 6.192L6.852 7.332C4.812 7.632 2.46 7.668 0.624 7.668ZM1.632 3.348H3.168V7.008H1.632V3.348ZM4.212 3.348H5.736V7.008H4.212V3.348ZM6.912 3.276H9.132V4.524H6.912V3.276ZM6.912 5.28H9.132V6.528H6.912V5.28ZM2.436 8.208H9.78V11.148H4.032V12.54H2.46V10.008H8.196V9.42H2.436V8.208ZM2.46 11.784H10.092V12.996H2.46V11.784ZM19.1511 1.956H20.7591V13.068H19.1511V1.956ZM14.2551 4.836H15.5151V5.412C15.5151 7.764 14.4711 10.128 12.4191 11.016L11.5671 9.792C13.3911 8.976 14.2551 7.092 14.2551 5.412V4.836ZM14.6031 4.836H15.8511V5.412C15.8511 7.008 16.7271 8.832 18.5631 9.612L17.7111 10.836C15.6591 9.984 14.6031 7.692 14.6031 5.412V4.836ZM11.9391 3.768H18.1191V5.028H11.9391V3.768ZM14.2551 2.208H15.8511V4.416H14.2551V2.208ZM30.2141 1.956H31.8221V13.068H30.2141V1.956ZM26.9381 3.108H28.5221C28.5221 6.504 27.3701 9.288 23.4221 11.196L22.5941 9.924C25.7861 8.388 26.9381 6.372 26.9381 3.396V3.108ZM23.1821 3.108H27.6941V4.368H23.1821V3.108Z" fill="#686868"/>
<path fill-rule="evenodd" clip-rule="evenodd" d="M41.074 8.69921C40.9216 8.85136 40.7151 8.93683 40.4998 8.93683C40.2845 8.93683 40.078 8.85136 39.9257 8.69921L36.8609 5.63554C36.7086 5.48312 36.623 5.27642 36.623 5.06091C36.6231 4.84541 36.7088 4.63875 36.8612 4.4864C37.0136 4.33405 37.2203 4.24848 37.4358 4.24854C37.6513 4.24859 37.858 4.33424 38.0103 4.48667L40.4998 6.97617L42.9893 4.48667C43.1425 4.33859 43.3477 4.2566 43.5607 4.25835C43.7738 4.2601 43.9776 4.34545 44.1283 4.49602C44.279 4.6466 44.3646 4.85034 44.3665 5.06338C44.3685 5.27641 44.2867 5.48169 44.1387 5.635L41.0745 8.69975" fill="#686868"/>
</svg>
