<svg width="59" height="24" viewBox="0 0 59 24" fill="none" xmlns="http://www.w3.org/2000/svg">
<rect x="0.5" y="0.5" width="58" height="23" rx="11.5" stroke="#393939"/>
<path d="M14.896 9.422H17.272V10.599H14.896V9.422ZM16.502 6.804H17.965V14.229H16.502V6.804ZM11.244 15.637H18.196V16.803H11.244V15.637ZM11.244 13.602H12.707V16.33H11.244V13.602ZM11.794 8.135H12.982V8.773C12.982 10.687 12.08 12.458 10.122 13.107L9.385 11.941C11.068 11.391 11.794 10.06 11.794 8.773V8.135ZM12.102 8.135H13.279V8.773C13.279 9.961 13.972 11.226 15.578 11.765L14.863 12.909C12.971 12.282 12.102 10.588 12.102 8.773V8.135ZM9.781 7.486H15.259V8.641H9.781V7.486ZM23.7061 10.654H25.3231V11.831H23.7061V10.654ZM21.3411 9.62H22.4411V9.884C22.4411 12.007 21.8251 14.13 20.1971 15.065L19.3721 13.965C20.8241 13.118 21.3411 11.446 21.3411 9.884V9.62ZM21.6271 9.62H22.7271V9.884C22.7271 11.424 23.2551 12.975 24.6961 13.745L23.9041 14.823C22.2541 13.965 21.6271 11.974 21.6271 9.884V9.62ZM19.7571 8.498H24.3001V9.675H19.7571V8.498ZM21.3411 7.134H22.7271V9.455H21.3411V7.134ZM26.9181 6.793H28.3041V16.979H26.9181V6.793ZM24.8611 6.958H26.2251V16.517H24.8611V6.958ZM33.6053 9.477H35.6733V10.643H33.6053V9.477ZM33.5503 12.018H35.6293V13.184H33.5503V12.018ZM37.0593 6.793H38.4563V16.979H37.0593V6.793ZM34.9583 7.013H36.3223V16.528H34.9583V7.013ZM32.6593 7.992H34.0673C34.0673 10.885 33.1983 13.195 30.3603 14.867L29.5353 13.844C31.8343 12.447 32.6593 10.753 32.6593 8.289V7.992ZM30.1183 7.992H33.1543V9.158H30.1183V7.992ZM42.1074 8.003H43.2954V8.564C43.2954 10.379 42.3714 11.985 40.4464 12.557L39.7314 11.424C41.3814 10.929 42.1074 9.752 42.1074 8.564V8.003ZM42.4044 8.003H43.5924V8.564C43.5924 9.664 44.2854 10.764 45.9024 11.237L45.2204 12.37C43.3064 11.82 42.4044 10.291 42.4044 8.564V8.003ZM40.0944 7.596H45.6054V8.784H40.0944V7.596ZM42.1184 12.117H43.5814V14.306H42.1184V12.117ZM47.3874 10.808H49.1804V12.029H47.3874V10.808ZM46.3754 6.793H47.8384V16.979H46.3754V6.793ZM39.8634 15.043L39.6874 13.866C41.4364 13.866 43.8234 13.877 45.8474 13.591L45.9574 14.658C43.8344 15.054 41.5684 15.054 39.8634 15.043Z" fill="#393939"/>
</svg>
