<svg width="21" height="20" viewBox="0 0 21 20" fill="none" xmlns="http://www.w3.org/2000/svg">
<path d="M1.39999 14H19.6M3.49999 14V7.33332C3.49999 5.56521 4.23749 3.86952 5.55025 2.61928C6.863 1.36904 8.64348 0.666656 10.5 0.666656C12.3565 0.666656 14.137 1.36904 15.4497 2.61928C16.7625 3.86952 17.5 5.56521 17.5 7.33332V14M7.69999 16V16.6667C7.69999 17.3739 7.99499 18.0522 8.5201 18.5523C9.0452 19.0524 9.75739 19.3333 10.5 19.3333C11.2426 19.3333 11.9548 19.0524 12.4799 18.5523C13.005 18.0522 13.3 17.3739 13.3 16.6667V16" stroke="black"/>
</svg>
