<svg width="50" height="22" viewBox="0 0 50 22" fill="none" xmlns="http://www.w3.org/2000/svg">
<path d="M6.984 2.888H9.504C9.504 7.316 6.678 10.322 1.71 11.6L0.81 9.728C4.896 8.702 6.984 6.578 6.984 4.076V2.888ZM1.764 2.888H8.532V4.76H1.764V2.888ZM12.168 1.934H14.58V11.222H12.168V1.934ZM3.546 11.924H14.58V18.422H3.546V11.924ZM12.222 13.814H5.904V16.532H12.222V13.814ZM27.9706 1.934H30.3466V18.602H27.9706V1.934ZM29.8066 8.432H32.7586V10.43H29.8066V8.432ZM17.2066 4.4H26.9086V6.308H17.2066V4.4ZM22.0846 7.244C24.5146 7.244 26.3146 8.9 26.3146 11.222C26.3146 13.544 24.5146 15.2 22.0846 15.2C19.6546 15.2 17.8546 13.544 17.8546 11.222C17.8546 8.9 19.6546 7.244 22.0846 7.244ZM22.0846 9.188C20.9506 9.188 20.1406 9.944 20.1406 11.222C20.1406 12.5 20.9506 13.256 22.0846 13.256C23.2186 13.256 24.0286 12.5 24.0286 11.222C24.0286 9.944 23.2186 9.188 22.0846 9.188ZM20.8786 2.204H23.2726V5.12H20.8786V2.204ZM46.2752 8.234H49.2092V10.196H46.2752V8.234ZM44.4932 1.916H46.9052V18.584H44.4932V1.916ZM34.3412 3.518H36.7352V13.868H34.3412V3.518ZM34.3412 12.536H35.7812C38.1572 12.536 40.7312 12.374 43.4132 11.834L43.6652 13.796C40.9112 14.372 38.2292 14.516 35.7812 14.516H34.3412V12.536Z" fill="black"/>
<line x1="1" y1="21.6" x2="47" y2="21.6" stroke="black" stroke-width="0.8"/>
</svg>
