<svg width="47" height="17" viewBox="0 0 47 17" fill="none" xmlns="http://www.w3.org/2000/svg">
<rect x="0.5" y="0.5" width="46" height="16" rx="8" stroke="#92D3C2"/>
<path d="M13.012 3.575H13.759V9.677H13.012V3.575ZM13.525 6.239H14.965V6.869H13.525V6.239ZM7.468 4.556H12.274V5.159H7.468V4.556ZM9.871 5.609C11.023 5.609 11.815 6.212 11.815 7.13C11.815 8.039 11.023 8.642 9.871 8.642C8.71 8.642 7.918 8.039 7.918 7.13C7.918 6.212 8.71 5.609 9.871 5.609ZM9.871 6.194C9.133 6.194 8.629 6.563 8.629 7.13C8.629 7.688 9.133 8.057 9.871 8.057C10.6 8.057 11.104 7.688 11.104 7.13C11.104 6.563 10.6 6.194 9.871 6.194ZM9.493 3.566H10.24V4.871H9.493V3.566ZM8.692 10.91H14.128V11.522H8.692V10.91ZM8.692 9.191H9.439V11.171H8.692V9.191ZM16.6563 7.364H22.2453V7.976H16.6563V7.364ZM15.7293 10.055H23.1003V10.685H15.7293V10.055ZM19.0233 7.625H19.7703V10.307H19.0233V7.625ZM16.6563 4.214H22.1643V4.826H17.4033V7.634H16.6563V4.214ZM27.1586 5.825H28.9676V6.428H27.1586V5.825ZM27.0956 7.868H28.9496V8.471H27.0956V7.868ZM30.2006 3.566H30.9206V11.702H30.2006V3.566ZM28.5716 3.773H29.2736V11.288H28.5716V3.773ZM26.7536 4.592H27.4736C27.4736 6.725 26.6186 8.642 24.4316 9.947L23.9996 9.416C25.8986 8.264 26.7536 6.644 26.7536 4.727V4.592ZM24.3596 4.592H27.0506V5.204H24.3596V4.592ZM34.3759 4.538H34.9879V5.015C34.9879 6.446 34.0519 7.607 32.6929 8.057L32.3239 7.472C33.5299 7.085 34.3759 6.122 34.3759 5.015V4.538ZM34.5109 4.538H35.1229V5.015C35.1229 6.05 35.9329 6.968 37.1209 7.337L36.7699 7.922C35.4199 7.49 34.5109 6.374 34.5109 5.015V4.538ZM32.5669 4.313H36.9229V4.934H32.5669V4.313ZM34.3759 7.715H35.1229V9.605H34.3759V7.715ZM38.3179 6.941H39.8209V7.571H38.3179V6.941ZM37.7869 3.566H38.5339V11.702H37.7869V3.566ZM32.2879 10.001L32.1889 9.38C33.6199 9.38 35.5999 9.38 37.2739 9.137L37.3369 9.695C35.5999 10.001 33.6919 10.01 32.2879 10.001Z" fill="#029592"/>
</svg>
