<svg width="29" height="29" viewBox="0 0 29 29" fill="none" xmlns="http://www.w3.org/2000/svg">
<path d="M14.5 21.75C14.7404 21.75 14.9709 21.6545 15.1408 21.4846C15.3108 21.3146 15.4062 21.0841 15.4062 20.8438C15.4062 20.6034 15.3108 20.3729 15.1408 20.2029C14.9709 20.033 14.7404 19.9375 14.5 19.9375C14.2596 19.9375 14.0291 20.033 13.8592 20.2029C13.6892 20.3729 13.5938 20.6034 13.5938 20.8438C13.5938 21.0841 13.6892 21.3146 13.8592 21.4846C14.0291 21.6545 14.2596 21.75 14.5 21.75ZM14.5 15.4062C14.7404 15.4062 14.9709 15.3108 15.1408 15.1408C15.3108 14.9709 15.4062 14.7404 15.4062 14.5C15.4062 14.2596 15.3108 14.0291 15.1408 13.8592C14.9709 13.6892 14.7404 13.5938 14.5 13.5938C14.2596 13.5938 14.0291 13.6892 13.8592 13.8592C13.6892 14.0291 13.5938 14.2596 13.5938 14.5C13.5938 14.7404 13.6892 14.9709 13.8592 15.1408C14.0291 15.3108 14.2596 15.4062 14.5 15.4062ZM14.5 9.0625C14.7404 9.0625 14.9709 8.96702 15.1408 8.79707C15.3108 8.62711 15.4062 8.3966 15.4062 8.15625C15.4062 7.9159 15.3108 7.68539 15.1408 7.51543C14.9709 7.34548 14.7404 7.25 14.5 7.25C14.2596 7.25 14.0291 7.34548 13.8592 7.51543C13.6892 7.68539 13.5938 7.9159 13.5938 8.15625C13.5938 8.3966 13.6892 8.62711 13.8592 8.79707C14.0291 8.96702 14.2596 9.0625 14.5 9.0625Z" stroke="#757575" stroke-width="2"/>
</svg>
