<svg width="16" height="16" viewBox="0 0 16 16" fill="none" xmlns="http://www.w3.org/2000/svg">
<path d="M6.10201 3.60533C6.94668 2.09066 7.36868 1.33333 8.00001 1.33333C8.63135 1.33333 9.05335 2.09066 9.89801 3.60533L10.1167 3.99733C10.3567 4.42799 10.4767 4.64333 10.6633 4.78533C10.85 4.92733 11.0833 4.97999 11.55 5.08533L11.974 5.18133C13.614 5.55266 14.4333 5.73799 14.6287 6.36533C14.8233 6.99199 14.2647 7.64599 13.1467 8.95333L12.8573 9.29133C12.54 9.66266 12.3807 9.84866 12.3093 10.078C12.238 10.308 12.262 10.556 12.31 11.0513L12.354 11.5027C12.5227 13.2473 12.6073 14.1193 12.0967 14.5067C11.586 14.8947 10.818 14.5407 9.28335 13.834L8.88535 13.6513C8.44935 13.45 8.23135 13.35 8.00001 13.35C7.76868 13.35 7.55068 13.45 7.11401 13.6513L6.71735 13.834C5.18201 14.5407 4.41401 14.894 3.90401 14.5073C3.39268 14.1193 3.47735 13.2473 3.64601 11.5027L3.69001 11.052C3.73801 10.556 3.76201 10.308 3.69001 10.0787C3.61935 9.84866 3.46001 9.66266 3.14268 9.29199L2.85335 8.95333C1.73535 7.64666 1.17668 6.99266 1.37135 6.36533C1.56668 5.73799 2.38668 5.55199 4.02668 5.18133L4.45068 5.08533C4.91668 4.97999 5.14935 4.92733 5.33668 4.78533C5.52335 4.64333 5.64335 4.42799 5.88335 3.99733L6.10201 3.60533Z" fill="#8F8F8F"/>
</svg>
