<svg width="42" height="22" viewBox="0 0 42 22" fill="none" xmlns="http://www.w3.org/2000/svg">
<rect width="42" height="22" rx="11" fill="#878A9C"/>
<path d="M18.496 5.088H19.492V15.936H18.496V5.088ZM15.316 6.252H16.3C16.3 9.396 14.884 12.144 11.26 13.92L10.732 13.116C13.864 11.604 15.316 9.3 15.316 6.42V6.252ZM11.224 6.252H15.748V7.068H11.224V6.252ZM22.9351 5.52H23.9191V6.876H29.1631V5.52H30.1591V9.852H22.9351V5.52ZM23.9191 7.668V9.048H29.1631V7.668H23.9191ZM21.6271 11.004H31.4311V11.82H21.6271V11.004ZM26.0431 9.384H27.0271V11.364H26.0431V9.384ZM22.8991 14.88H30.3511V15.696H22.8991V14.88ZM22.8991 12.696H23.8951V15.156H22.8991V12.696Z" fill="white"/>
</svg>
