<svg width="21" height="33" viewBox="0 0 21 33" fill="none" xmlns="http://www.w3.org/2000/svg">
<path fill-rule="evenodd" clip-rule="evenodd" d="M18.1562 9.625C18.1562 9.8985 18.0871 10.1608 17.964 10.3542C17.841 10.5476 17.674 10.6562 17.5 10.6562H3.5C3.32595 10.6562 3.15903 10.5476 3.03596 10.3542C2.91289 10.1608 2.84375 9.8985 2.84375 9.625C2.84375 9.3515 2.91289 9.08919 3.03596 8.8958C3.15903 8.7024 3.32595 8.59375 3.5 8.59375H17.5C17.674 8.59375 17.841 8.7024 17.964 8.8958C18.0871 9.08919 18.1562 9.3515 18.1562 9.625ZM18.1562 16.5C18.1562 16.7735 18.0871 17.0358 17.964 17.2292C17.841 17.4226 17.674 17.5312 17.5 17.5312H3.5C3.32595 17.5312 3.15903 17.4226 3.03596 17.2292C2.91289 17.0358 2.84375 16.7735 2.84375 16.5C2.84375 16.2265 2.91289 15.9642 3.03596 15.7708C3.15903 15.5774 3.32595 15.4687 3.5 15.4687H17.5C17.674 15.4687 17.841 15.5774 17.964 15.7708C18.0871 15.9642 18.1562 16.2265 18.1562 16.5ZM18.1562 23.375C18.1562 23.6485 18.0871 23.9108 17.964 24.1042C17.841 24.2976 17.674 24.4062 17.5 24.4062H3.5C3.32595 24.4062 3.15903 24.2976 3.03596 24.1042C2.91289 23.9108 2.84375 23.6485 2.84375 23.375C2.84375 23.1015 2.91289 22.8392 3.03596 22.6458C3.15903 22.4524 3.32595 22.3437 3.5 22.3437H17.5C17.674 22.3437 17.841 22.4524 17.964 22.6458C18.0871 22.8392 18.1562 23.1015 18.1562 23.375Z" fill="#111111"/>
</svg>
