<svg width="260" height="23" viewBox="0 0 260 23" fill="none" xmlns="http://www.w3.org/2000/svg">
<path d="M38.075 4.1725H39.2825V5.4325C39.2825 8.3375 37.4975 10.77 34.8375 11.715L34.085 10.5775C36.465 9.7375 38.075 7.6725 38.075 5.4325V4.1725ZM38.355 4.1725H39.5625V5.4325C39.5625 7.5675 41.2075 9.4925 43.5525 10.28L42.8 11.4175C40.175 10.525 38.355 8.1975 38.355 5.4325V4.1725ZM45.3725 2.545H46.8425V12.1175H45.3725V2.545ZM36.2725 12.9575H46.8425V18.365H45.3725V14.1475H36.2725V12.9575ZM34.47 3.6475H43.1325V4.82H34.47V3.6475ZM58.4086 6.3775H61.9261V7.5675H58.4086V6.3775ZM61.5236 2.545H62.9761V11.1375H61.5236V2.545ZM52.8436 11.9075H54.2786V13.8325H61.5411V11.9075H62.9761V18.155H52.8436V11.9075ZM54.2786 15.005V16.965H61.5411V15.005H54.2786ZM53.9986 3.7875H55.1886V5.0825C55.1886 7.9525 53.4036 10.4375 50.7611 11.4175L50.0086 10.245C52.3711 9.4225 53.9986 7.3225 53.9986 5.0825V3.7875ZM54.2786 3.7875H55.4511V5.065C55.4511 7.1125 56.9911 9.09 59.2836 9.895L58.5486 11.0325C55.9761 10.105 54.2786 7.725 54.2786 5.065V3.7875ZM50.4636 3.49H58.9161V4.6625H50.4636V3.49ZM77.5698 2.545H79.0398V11.0325H77.5698V2.545ZM68.8373 11.82H70.2723V13.745H77.6048V11.82H79.0398V18.155H68.8373V11.82ZM70.2723 14.9V16.9825H77.6048V14.9H70.2723ZM70.5523 3.2975C72.9498 3.2975 74.6648 4.785 74.6648 6.9375C74.6648 9.1075 72.9498 10.595 70.5523 10.595C68.1548 10.595 66.4223 9.1075 66.4223 6.9375C66.4223 4.785 68.1548 3.2975 70.5523 3.2975ZM70.5523 4.505C68.9773 4.505 67.8398 5.5025 67.8398 6.9375C67.8398 8.3725 68.9773 9.37 70.5523 9.37C72.1273 9.37 73.2648 8.3725 73.2648 6.9375C73.2648 5.5025 72.1273 4.505 70.5523 4.505ZM82.8184 10.385H83.9559C87.0709 10.385 88.6109 10.3325 90.5009 10L90.6584 11.1725C88.6984 11.5225 87.1234 11.575 83.9559 11.575H82.8184V10.385ZM82.7834 3.49H89.6084V7.9875H84.2534V11.1025H82.8184V6.85H88.1734V4.68H82.7834V3.49ZM93.7209 2.5625H95.1734V12.275H93.7209V2.5625ZM90.6584 4.89H94.0534V6.08H90.6584V4.89ZM90.6584 8.1625H94.0534V9.3525H90.6584V8.1625ZM84.5859 13.1325H95.1734V18.4H93.7209V14.3225H84.5859V13.1325Z" fill="black"/>
<path d="M168.075 4.7525C170.403 4.7525 172.048 6.905 172.048 10.265C172.048 13.6425 170.403 15.795 168.075 15.795C165.748 15.795 164.103 13.6425 164.103 10.265C164.103 6.905 165.748 4.7525 168.075 4.7525ZM168.075 6.065C166.535 6.065 165.485 7.71 165.485 10.265C165.485 12.8375 166.535 14.5175 168.075 14.5175C169.598 14.5175 170.665 12.8375 170.665 10.265C170.665 7.71 169.598 6.065 168.075 6.065ZM174.568 3.545H176.038V19.365H174.568V3.545ZM175.688 9.8625H178.628V11.0875H175.688V9.8625ZM180.166 5.2425H188.969V6.4325H180.166V5.2425ZM179.939 15.4625L179.764 14.22C182.616 14.22 186.449 14.185 189.704 13.7825L189.791 14.8675C186.484 15.41 182.721 15.4625 179.939 15.4625ZM181.864 6.135H183.281V14.5525H181.864V6.135ZM185.854 6.135H187.271V14.5525H185.854V6.135ZM190.666 3.545H192.136V19.365H190.666V3.545ZM191.786 9.8625H194.726V11.0875H191.786V9.8625ZM197.91 12.0675H208.777V13.24H197.91V12.0675ZM196.072 16.1275H210.405V17.335H196.072V16.1275ZM197.91 4.8925H208.602V6.0825H199.38V12.435H197.91V4.8925ZM198.907 8.4275H208.27V9.5825H198.907V8.4275ZM213.011 4.77H220.011V5.96H213.011V4.77ZM215.391 8.305H216.826V12.26H215.391V8.305ZM219.433 4.77H220.868V5.61C220.868 6.6425 220.868 8.2175 220.448 10.3L219.031 10.1425C219.433 8.06 219.433 6.625 219.433 5.61V4.77ZM223.021 3.545H224.473V15.4625H223.021V3.545ZM223.808 8.69H226.731V9.8975H223.808V8.69ZM214.481 17.825H224.981V19.015H214.481V17.825ZM214.481 14.36H215.916V18.1925H214.481V14.36ZM212.206 12.9425L212.048 11.7525C214.866 11.7525 218.751 11.6825 221.953 11.245L222.058 12.295C218.768 12.8725 214.988 12.9425 212.206 12.9425ZM239.785 3.5275H241.237V19.3825H239.785V3.5275ZM229.18 14.36H230.492C233.135 14.36 235.497 14.255 238.297 13.8L238.455 14.99C235.585 15.4625 233.205 15.5675 230.492 15.5675H229.18V14.36ZM229.145 5.015H236.46V10.6675H230.632V14.815H229.18V9.4775H234.99V6.205H229.145V5.015ZM255.848 3.5275H257.301V19.3825H255.848V3.5275ZM245.261 4.875H246.696V9.0575H251.263V4.875H252.716V15.5675H245.261V4.875ZM246.696 10.2125V14.3775H251.263V10.2125H246.696Z" fill="black"/>
<circle cx="11.5" cy="11.5" r="11.5" fill="#009491"/>
<circle cx="12" cy="12" r="5" fill="white"/>
<circle cx="144.5" cy="11.5" r="11" fill="#F9F9FB" stroke="#DBDBDB"/>
<circle cx="145" cy="12" r="5" fill="#D9D9D9"/>
</svg>
