<svg width="373" height="30" viewBox="0 0 373 30" fill="none" xmlns="http://www.w3.org/2000/svg">
<path d="M-1 29H373" stroke="#EBEBEB"/>
<path d="M91.784 9.384H104.856V10.472H91.784V9.384ZM93.48 14.84H103.416V15.928H93.48V14.84ZM93.48 11.736H94.808V15.176H93.48V11.736ZM98.328 2.264C101.416 2.264 103.416 3.352 103.416 5.16C103.416 6.952 101.416 8.04 98.328 8.04C95.224 8.04 93.24 6.952 93.24 5.16C93.24 3.352 95.224 2.264 98.328 2.264ZM98.328 3.352C96.056 3.352 94.6 4.024 94.6 5.16C94.6 6.296 96.056 6.968 98.328 6.968C100.6 6.968 102.056 6.296 102.056 5.16C102.056 4.024 100.6 3.352 98.328 3.352ZM117.431 1.784H118.695V10.936H117.431V1.784ZM115.079 5.704H117.815V6.808H115.079V5.704ZM114.343 2.072H115.591V10.424H114.343V2.072ZM106.439 3.512H113.767V4.568H106.439V3.512ZM110.119 5.304C111.927 5.304 113.191 6.296 113.191 7.784C113.191 9.288 111.927 10.264 110.119 10.264C108.295 10.264 107.031 9.288 107.031 7.784C107.031 6.296 108.295 5.304 110.119 5.304ZM110.119 6.296C108.983 6.296 108.215 6.888 108.215 7.784C108.215 8.696 108.983 9.272 110.119 9.272C111.239 9.272 112.007 8.696 112.007 7.784C112.007 6.888 111.239 6.296 110.119 6.296ZM109.463 1.896H110.759V4.104H109.463V1.896ZM113.959 11.192C116.967 11.192 118.775 12.088 118.775 13.704C118.775 15.304 116.967 16.216 113.959 16.216C110.919 16.216 109.127 15.304 109.127 13.704C109.127 12.088 110.919 11.192 113.959 11.192ZM113.959 12.216C111.735 12.216 110.439 12.744 110.439 13.704C110.439 14.664 111.735 15.208 113.959 15.208C116.151 15.208 117.463 14.664 117.463 13.704C117.463 12.744 116.151 12.216 113.959 12.216Z" fill="black"/>
<path d="M258.784 8.664H271.856V9.736H258.784V8.664ZM265.312 10.984C268.4 10.984 270.272 11.944 270.272 13.608C270.272 15.272 268.4 16.216 265.312 16.216C262.224 16.216 260.352 15.272 260.352 13.608C260.352 11.944 262.224 10.984 265.312 10.984ZM265.312 12.04C263.056 12.04 261.696 12.6 261.696 13.608C261.696 14.6 263.056 15.176 265.312 15.176C267.584 15.176 268.928 14.6 268.928 13.608C268.928 12.6 267.584 12.04 265.312 12.04ZM264.464 3.096H265.648V3.528C265.648 5.848 262.992 7.432 260 7.784L259.52 6.744C262.112 6.456 264.464 5.16 264.464 3.528V3.096ZM265.024 3.096H266.192V3.528C266.192 5.16 268.544 6.456 271.136 6.744L270.656 7.784C267.664 7.432 265.024 5.848 265.024 3.528V3.096ZM259.984 2.52H270.688V3.592H259.984V2.52ZM277.487 8.28H278.799V11.784H277.487V8.28ZM284.079 1.784H285.407V12.712H284.079V1.784ZM275.535 14.84H285.759V15.928H275.535V14.84ZM275.535 11.528H276.863V15.176H275.535V11.528ZM273.583 8.6L273.407 7.496C276.063 7.496 279.695 7.448 282.783 7.016L282.879 7.976C279.727 8.52 276.207 8.584 273.583 8.6ZM280.943 9.656H284.415V10.712H280.943V9.656ZM274.719 2.664H280.959V3.736H274.719V2.664ZM280.143 2.664H281.455V3.208C281.455 4.088 281.455 5.608 281.071 7.704L279.759 7.608C280.143 5.496 280.143 4.056 280.143 3.208V2.664Z" fill="#888888"/>
</svg>
