<svg width="224" height="28" viewBox="0 0 224 28" fill="none" xmlns="http://www.w3.org/2000/svg">
<rect x="117" y="1" width="106" height="26" rx="2" fill="white" stroke="#DEDEDF" stroke-width="2"/>
<path d="M137.549 10.939H138.407V12.85C138.407 15.294 136.912 17.816 135.079 18.752L134.455 17.894C136.132 17.075 137.549 14.839 137.549 12.85V10.939ZM137.744 10.939H138.602V12.85C138.602 14.709 139.928 16.802 141.631 17.608L141.02 18.466C139.161 17.543 137.744 15.177 137.744 12.85V10.939ZM134.871 10.458H141.202V11.368H134.871V10.458ZM142.593 9.262H143.685V21.014H142.593V9.262ZM143.425 14.007H145.609V14.917H143.425V14.007ZM146.609 15.047H157.23V15.931H146.609V15.047ZM151.38 13.162H152.446V15.411H151.38V13.162ZM147.948 12.824H155.995V13.708H147.948V12.824ZM147.948 9.795H155.904V10.666H149.014V13.344H147.948V9.795ZM151.9 16.776C154.409 16.776 155.93 17.543 155.93 18.882C155.93 20.247 154.409 21.001 151.9 21.001C149.391 21.001 147.87 20.247 147.87 18.882C147.87 17.543 149.391 16.776 151.9 16.776ZM151.9 17.608C150.067 17.608 148.962 18.076 148.962 18.882C148.962 19.701 150.067 20.156 151.9 20.156C153.746 20.156 154.838 19.701 154.838 18.882C154.838 18.076 153.746 17.608 151.9 17.608ZM167.096 9.249H168.175V21.027H167.096V9.249ZM161.974 10.159C163.716 10.159 164.964 11.758 164.964 14.254C164.964 16.763 163.716 18.362 161.974 18.362C160.245 18.362 158.997 16.763 158.997 14.254C158.997 11.758 160.245 10.159 161.974 10.159ZM161.974 11.134C160.83 11.134 160.024 12.356 160.024 14.254C160.024 16.165 160.83 17.413 161.974 17.413C163.131 17.413 163.924 16.165 163.924 14.254C163.924 12.356 163.131 11.134 161.974 11.134ZM175.311 13.903H177.534V14.787H175.311V13.903ZM172.919 12.265H173.751V12.876C173.751 15.216 172.776 17.582 171.06 18.609L170.423 17.79C172.009 16.867 172.919 14.8 172.919 12.876V12.265ZM173.114 12.265H173.946V12.876C173.946 14.748 174.882 16.685 176.468 17.543L175.857 18.349C174.128 17.387 173.114 15.164 173.114 12.876V12.265ZM170.748 11.42H176.117V12.317H170.748V11.42ZM172.919 9.678H173.959V12.109H172.919V9.678ZM179.458 9.262H180.498V21.014H179.458V9.262ZM177.105 9.535H178.119V20.416H177.105V9.535ZM182.486 14.852H193.107V15.749H182.486V14.852ZM183.825 12.863H191.872V13.734H183.825V12.863ZM183.825 9.73H191.781V10.614H184.891V13.279H183.825V9.73ZM187.777 16.763C190.286 16.763 191.807 17.53 191.807 18.882C191.807 20.234 190.286 20.988 187.777 20.988C185.268 20.988 183.747 20.234 183.747 18.882C183.747 17.53 185.268 16.763 187.777 16.763ZM187.777 17.595C185.944 17.595 184.839 18.063 184.839 18.882C184.839 19.688 185.944 20.143 187.777 20.143C189.623 20.143 190.715 19.688 190.715 18.882C190.715 18.063 189.623 17.595 187.777 17.595ZM194.432 15.723H205.092V16.607H194.432V15.723ZM195.784 9.561H203.714V12.408H196.876V13.994H195.81V11.615H202.661V10.406H195.784V9.561ZM195.81 13.643H203.974V14.488H195.81V13.643ZM199.216 14.085H200.295V16.165H199.216V14.085ZM195.615 17.504H203.792V20.91H202.713V18.388H195.615V17.504Z" fill="#686868"/>
<rect x="1" y="1" width="106" height="26" rx="2" fill="white" stroke="#DEDEDF" stroke-width="2"/>
<path d="M29.0156 11.7005C28.9589 11.5255 28.8519 11.3711 28.708 11.2565C28.5641 11.1419 28.3897 11.0721 28.2065 11.0559L24.7266 10.7559L23.3625 7.51219C23.2915 7.34198 23.1717 7.19659 23.0182 7.09433C22.8647 6.99207 22.6844 6.9375 22.5 6.9375C22.3156 6.9375 22.1353 6.99207 21.9818 7.09433C21.8283 7.19659 21.7085 7.34198 21.6375 7.51219L20.2776 10.7559L16.7936 11.0577C16.6096 11.0732 16.4343 11.1426 16.2896 11.2573C16.145 11.372 16.0374 11.5268 15.9804 11.7024C15.9234 11.878 15.9195 12.0665 15.9692 12.2443C16.0189 12.4221 16.12 12.5813 16.2598 12.7018L18.9029 15.0116L18.1108 18.4417C18.0689 18.6212 18.0808 18.809 18.1451 18.9818C18.2094 19.1545 18.3232 19.3045 18.4723 19.4129C18.6213 19.5213 18.7991 19.5834 18.9832 19.5914C19.1673 19.5993 19.3498 19.5528 19.5076 19.4577L22.4959 17.6413L25.4906 19.4577C25.6485 19.5528 25.8309 19.5993 26.0151 19.5914C26.1992 19.5834 26.3769 19.5213 26.526 19.4129C26.6751 19.3045 26.7888 19.1545 26.8531 18.9818C26.9174 18.809 26.9294 18.6212 26.8875 18.4417L26.0959 15.0081L28.7385 12.7018C28.8783 12.5808 28.9792 12.4212 29.0285 12.2431C29.0778 12.0649 29.0733 11.8761 29.0156 11.7005ZM28.1238 11.9934L25.4813 14.2997C25.3527 14.4116 25.257 14.5564 25.2045 14.7186C25.1521 14.8808 25.1448 15.0542 25.1836 15.2202L25.9776 18.6561L22.9852 16.8397C22.8392 16.7508 22.6715 16.7038 22.5006 16.7038C22.3297 16.7038 22.162 16.7508 22.016 16.8397L19.0277 18.6561L19.8164 15.2225C19.8552 15.0565 19.8479 14.8831 19.7955 14.7209C19.7431 14.5587 19.6474 14.4139 19.5188 14.302L16.875 11.997C16.8748 11.9952 16.8748 11.9934 16.875 11.9917L20.3578 11.6905C20.5279 11.6755 20.6906 11.6144 20.8284 11.5137C20.9663 11.413 21.074 11.2766 21.1401 11.1192L22.5 7.87957L23.8594 11.1192C23.9254 11.2766 24.0332 11.413 24.171 11.5137C24.3089 11.6144 24.4716 11.6755 24.6416 11.6905L28.125 11.9917V11.9958L28.1238 11.9934Z" fill="#686868"/>
<path d="M33.003 10.333H33.729V11.95C33.729 14.018 32.464 16.152 30.913 16.944L30.385 16.218C31.804 15.525 33.003 13.633 33.003 11.95V10.333ZM33.168 10.333H33.894V11.95C33.894 13.523 35.016 15.294 36.457 15.976L35.94 16.702C34.367 15.921 33.168 13.919 33.168 11.95V10.333ZM30.737 9.926H36.094V10.696H30.737V9.926ZM37.271 8.914H38.195V18.858H37.271V8.914ZM37.975 12.929H39.823V13.699H37.975V12.929ZM44.6511 9.893H45.4431V10.311C45.4431 12.093 43.5511 13.402 41.5491 13.743L41.1971 13.017C42.9461 12.764 44.6511 11.62 44.6511 10.311V9.893ZM44.8821 9.893H45.6631V10.311C45.6631 11.62 47.3791 12.764 49.1171 13.017L48.7761 13.743C46.7631 13.402 44.8821 12.093 44.8821 10.311V9.893ZM44.6841 15.063H45.5861V18.858H44.6841V15.063ZM40.6691 14.579H49.6561V15.327H40.6691V14.579ZM41.5051 9.53H48.7871V10.267H41.5051V9.53ZM52.8563 9.706H53.5713V10.971C53.5713 12.423 52.7903 14.018 51.3493 14.689L50.8653 14.007C52.1413 13.413 52.8563 12.071 52.8563 10.971V9.706ZM53.0543 9.706H53.7693V10.971C53.7693 12.016 54.3963 13.435 55.6723 14.073L55.2653 14.81C53.7473 14.095 53.0543 12.357 53.0543 10.971V9.706ZM56.7723 9.706H57.4763V10.971C57.4763 12.423 56.7943 14.117 55.2653 14.81L54.8693 14.073C56.1453 13.457 56.7723 12.082 56.7723 10.971V9.706ZM56.9813 9.706H57.6853V10.971C57.6853 12.181 58.3893 13.446 59.6873 14.007L59.1923 14.689C57.7403 14.04 56.9813 12.544 56.9813 10.971V9.706ZM50.7773 16.768H59.7973V17.527H50.7773V16.768ZM62.1174 11.895H68.8714V12.643H62.1174V11.895ZM60.8964 13.974H69.9164V14.722H60.8964V13.974ZM62.1174 9.277H63.0194V12.269H62.1174V9.277ZM62.0514 17.868H68.9264V18.616H62.0514V17.868ZM62.0514 15.712H62.9534V18.066H62.0514V15.712ZM74.8766 11.675H77.0876V12.412H74.8766V11.675ZM74.7996 14.172H77.0656V14.909H74.7996V14.172ZM78.5946 8.914H79.4746V18.858H78.5946V8.914ZM76.6036 9.167H77.4616V18.352H76.6036V9.167ZM74.3816 10.168H75.2616C75.2616 12.775 74.2166 15.118 71.5436 16.713L71.0156 16.064C73.3366 14.656 74.3816 12.676 74.3816 10.333V10.168ZM71.4556 10.168H74.7446V10.916H71.4556V10.168ZM83.6977 10.102H84.4457V10.685C84.4457 12.434 83.3017 13.853 81.6407 14.403L81.1897 13.688C82.6637 13.215 83.6977 12.038 83.6977 10.685V10.102ZM83.8627 10.102H84.6107V10.685C84.6107 11.95 85.6007 13.072 87.0527 13.523L86.6237 14.238C84.9737 13.71 83.8627 12.346 83.8627 10.685V10.102ZM81.4867 9.827H86.8107V10.586H81.4867V9.827ZM83.6977 13.985H84.6107V16.295H83.6977V13.985ZM88.5157 13.039H90.3527V13.809H88.5157V13.039ZM87.8667 8.914H88.7797V18.858H87.8667V8.914ZM81.1457 16.779L81.0247 16.02C82.7737 16.02 85.1937 16.02 87.2397 15.723L87.3167 16.405C85.1937 16.779 82.8617 16.79 81.1457 16.779Z" fill="#686868"/>
</svg>
