<svg width="52" height="52" viewBox="0 0 52 52" fill="none" xmlns="http://www.w3.org/2000/svg">
<path d="M32.0666 9.99453L46.5854 34.1767C48.6719 37.6499 47.6471 42.2194 44.2952 44.3817C43.1703 45.1101 41.859 45.4983 40.5187 45.4997H11.4789C7.53342 45.4997 4.33325 42.1847 4.33325 38.0919C4.33325 36.7074 4.70809 35.3532 5.41225 34.1767L19.9333 9.99453C22.0176 6.52136 26.4246 5.45753 29.7764 7.61986C30.7038 8.21786 31.4881 9.03036 32.0666 9.99453ZM25.9999 36.833C26.5746 36.833 27.1257 36.6048 27.532 36.1984C27.9383 35.7921 28.1666 35.241 28.1666 34.6664C28.1666 34.0917 27.9383 33.5406 27.532 33.1343C27.1257 32.728 26.5746 32.4997 25.9999 32.4997C25.4253 32.4997 24.8742 32.728 24.4679 33.1343C24.0615 33.5406 23.8333 34.0917 23.8333 34.6664C23.8333 35.241 24.0615 35.7921 24.4679 36.1984C24.8742 36.6048 25.4253 36.833 25.9999 36.833ZM25.9999 17.333C25.4253 17.333 24.8742 17.5613 24.4679 17.9676C24.0615 18.374 23.8333 18.9251 23.8333 19.4997V28.1664C23.8333 28.741 24.0615 29.2921 24.4679 29.6984C24.8742 30.1048 25.4253 30.333 25.9999 30.333C26.5746 30.333 27.1257 30.1048 27.532 29.6984C27.9383 29.2921 28.1666 28.741 28.1666 28.1664V19.4997C28.1666 18.9251 27.9383 18.374 27.532 17.9676C27.1257 17.5613 26.5746 17.333 25.9999 17.333Z" fill="#E9644E"/>
<ellipse cx="12.4348" cy="10.1739" rx="3.3913" ry="3.3913" fill="#E9644E"/>
<path d="M15.2977 1.97949C15.4393 2.22486 15.4521 2.56429 15.3359 2.99777C15.2353 3.43541 15.0615 3.8825 14.8148 4.33906C14.5834 4.79977 14.3566 5.16627 14.1343 5.43857C13.7233 5.95069 13.2091 6.47661 12.5915 7.01636C11.9838 7.55043 11.3757 7.99314 10.7672 8.34447C9.52068 9.06414 8.3147 9.57065 7.14924 9.86402C5.9936 10.1517 4.95437 10.2217 4.03154 10.074C3.73476 10.036 3.37641 9.90261 2.95648 9.67394C2.53655 9.44526 2.25292 9.20333 2.10558 8.94815C2.04325 8.84018 2.03773 8.70596 2.08903 8.54547C2.13618 8.40047 2.21374 8.29681 2.3217 8.23447C2.43948 8.16647 2.5905 8.14471 2.77476 8.1692C2.95488 8.20916 3.18993 8.27629 3.47994 8.37059C3.88246 8.47845 4.08372 8.53238 4.08372 8.53238C4.57195 8.63001 5.4341 8.57064 6.67019 8.35428C7.50872 8.19732 8.47762 7.80151 9.5769 7.16684C10.5682 6.59451 11.4843 5.86928 12.3253 4.99117C13.1817 4.1172 13.7216 3.34093 13.9449 2.66237L14.0399 2.21492C14.1209 1.78862 14.2154 1.54431 14.3234 1.48197C14.4902 1.38564 14.6603 1.38559 14.8337 1.48181C15.007 1.57804 15.1617 1.74393 15.2977 1.97949Z" fill="#E9644E"/>
<ellipse cx="40.6957" cy="10.1739" rx="3.3913" ry="3.3913" fill="#E9644E"/>
<path d="M50.483 9.26028C50.3413 9.50565 50.0537 9.68641 49.6202 9.80257C49.1909 9.9342 48.7168 10.0073 48.198 10.0219C47.6834 10.0519 47.2526 10.0387 46.9056 9.98236C46.2566 9.88248 45.544 9.70007 44.7678 9.43515C44.0015 9.17589 43.314 8.87059 42.7055 8.51926C41.459 7.79959 40.4173 7.00844 39.5805 6.14581C38.7536 5.28884 38.1733 4.42384 37.8398 3.55079C37.7244 3.27475 37.6607 2.89773 37.6488 2.41973C37.6368 1.94172 37.7045 1.57512 37.8519 1.31994C37.9142 1.21197 38.0277 1.14008 38.1923 1.10426C38.3415 1.0726 38.47 1.08793 38.578 1.15026C38.6958 1.21826 38.7901 1.33817 38.8611 1.50999C38.9165 1.68595 38.9759 1.92308 39.0392 2.22138C39.1471 2.6239 39.201 2.82517 39.201 2.82517C39.3606 3.2968 39.8431 4.01377 40.6485 4.97607C41.2037 5.62378 42.0309 6.26496 43.1302 6.89963C44.1215 7.47196 45.2076 7.90274 46.3886 8.19196C47.5737 8.49666 48.5159 8.57606 49.2152 8.43016L49.6502 8.28872C50.0599 8.14575 50.3187 8.10543 50.4267 8.16777C50.5935 8.2641 50.6786 8.41138 50.682 8.6096C50.6853 8.80783 50.619 9.02472 50.483 9.26028Z" fill="#E9644E"/>
</svg>
