<svg width="23" height="23" viewBox="0 0 23 23" fill="none" xmlns="http://www.w3.org/2000/svg">
<path d="M4 20C4 15.2721 6.77206 11.8043 11.5 11.8043C13.9585 11.8043 16.1748 12.8405 17.736 14.5" stroke="black" stroke-linecap="round" stroke-linejoin="round"/>
<path d="M11.6974 11.8105C14.231 11.8105 16.285 9.75658 16.285 7.22295C16.285 4.68932 14.231 2.63541 11.6974 2.63541C9.16379 2.63541 7.10987 4.68932 7.10987 7.22295C7.10987 9.75658 9.16379 11.8105 11.6974 11.8105Z" stroke="black" stroke-linecap="round" stroke-linejoin="round"/>
<path d="M11.9126 16.0234H12.7808L14.0591 19.6772L15.3374 16.0234H16.2056L14.4077 21H13.7104L11.9126 16.0234ZM11.4443 16.0234H12.3091L12.4663 19.585V21H11.4443V16.0234ZM15.8091 16.0234H16.6772V21H15.6519V19.585L15.8091 16.0234ZM18.1641 16.0234L19.2031 18.293L20.2422 16.0234H21.3599L19.7227 19.1885V21H18.6836V19.1885L17.043 16.0234H18.1641Z" fill="black"/>
</svg>
