<svg width="35" height="37" viewBox="0 0 35 37" fill="none" xmlns="http://www.w3.org/2000/svg">
<rect x="9.5" y="1.5" width="16" height="17" rx="1.5" stroke="black"/>
<path d="M20 9.57169C20 8.30339 18.8721 7 17.5 7C16.1279 7 15 8.30339 15 9.57169V10H20V9.57169Z" fill="black"/>
<path d="M17.5 7C18.3633 7 19 6.36325 19 5.5C19 4.63675 18.3633 4 17.5 4C16.6367 4 16 4.63675 16 5.5C16 6.36325 16.636 7 17.5 7Z" fill="black"/>
<line x1="12.65" y1="12.35" x2="21.35" y2="12.35" stroke="black" stroke-width="1.3" stroke-linecap="round"/>
<line x1="12.65" y1="15.35" x2="21.35" y2="15.35" stroke="black" stroke-width="1.3" stroke-linecap="round"/>
<rect y="24" width="35" height="13" rx="4" fill="#262A43"/>
<path d="M17.5 21L15.5 25H20L17.5 21Z" fill="#262A43"/>
<path d="M7.836 30.774H8.334V31.98H7.836V30.774ZM10.242 28.044H10.74V32.172H10.242V28.044ZM7.038 32.94H10.872V33.348H7.038V32.94ZM7.038 31.77H7.536V33.054H7.038V31.77ZM6.336 30.96L6.27 30.552C7.272 30.552 8.616 30.54 9.768 30.39L9.804 30.756C8.634 30.942 7.32 30.96 6.336 30.96ZM9.138 31.248H10.368V31.614H9.138V31.248ZM8.034 28.266C8.826 28.266 9.366 28.638 9.366 29.208C9.366 29.784 8.826 30.156 8.034 30.156C7.236 30.156 6.696 29.784 6.696 29.208C6.696 28.638 7.236 28.266 8.034 28.266ZM8.034 28.638C7.524 28.638 7.17 28.86 7.17 29.208C7.17 29.556 7.524 29.778 8.034 29.778C8.538 29.778 8.892 29.556 8.892 29.208C8.892 28.86 8.538 28.638 8.034 28.638ZM13.0795 31.164H13.5775V33.468H13.0795V31.164ZM14.9335 31.164H15.4315V33.468H14.9335V31.164ZM15.7495 29.532V29.916L12.3475 30.084L12.2755 29.658L15.7495 29.532ZM12.4375 28.368H15.8275V28.776H12.4375V28.368ZM11.8195 30.936H16.7215V31.344H11.8195V30.936ZM15.6175 28.368H16.0975V28.866C16.0975 29.46 16.0975 30.12 15.8815 31.074L15.3895 31.014C15.6175 30.102 15.6175 29.454 15.6175 28.866V28.368ZM18.7731 28.818H19.1751V29.7C19.1751 30.846 18.4851 31.998 17.6211 32.424L17.3331 32.028C18.1191 31.656 18.7731 30.636 18.7731 29.7V28.818ZM18.8691 28.818H19.2711V29.7C19.2711 30.618 19.9251 31.554 20.7231 31.896L20.4411 32.292C19.5651 31.884 18.8691 30.828 18.8691 29.7V28.818ZM17.5131 28.596H20.5431V29.016H17.5131V28.596ZM21.2751 28.044H21.7731V33.468H21.2751V28.044ZM26.5666 28.044H27.0646V30.978H26.5666V28.044ZM26.9266 29.322H27.8686V29.742H26.9266V29.322ZM25.0606 28.368H25.6006C25.6006 29.736 24.6406 30.654 23.0566 31.044L22.8646 30.636C24.2686 30.3 25.0606 29.562 25.0606 28.614V28.368ZM23.1046 28.368H25.3606V28.776H23.1046V28.368ZM23.6386 31.224H24.1306V31.902H26.5726V31.224H27.0646V33.396H23.6386V31.224ZM24.1306 32.298V32.994H26.5726V32.298H24.1306Z" fill="white"/>
</svg>
