<svg width="29" height="19" viewBox="0 0 29 19" fill="none" xmlns="http://www.w3.org/2000/svg">
<rect width="29" height="19" rx="9" fill="#EAEAEE"/>
<path d="M9.753 8.67H10.491V10.074H9.753V8.67ZM7.341 9.912H12.894V12.594H7.341V9.912ZM12.165 10.515H8.079V11.991H12.165V10.515ZM6.441 8.31H13.794V8.922H6.441V8.31ZM9.744 4.647H10.383V5.007C10.383 6.429 8.808 7.455 7.134 7.707L6.864 7.113C8.322 6.924 9.744 6.042 9.744 5.007V4.647ZM9.861 4.647H10.5V5.007C10.5 6.024 11.94 6.924 13.38 7.113L13.101 7.707C11.445 7.455 9.861 6.411 9.861 5.007V4.647ZM18.2033 5.088H18.9863C18.9863 7.158 17.5013 8.616 15.1073 9.255L14.8193 8.661C16.9343 8.103 18.2033 6.924 18.2033 5.421V5.088ZM15.2423 5.088H18.6353V5.691H15.2423V5.088ZM20.6423 4.566H21.3983V9.156H20.6423V4.566ZM16.1333 9.552H21.3983V12.594H16.1333V9.552ZM20.6603 10.155H16.8713V11.982H20.6603V10.155Z" fill="#666666"/>
</svg>
