<svg width="20" height="20" viewBox="0 0 20 20" fill="none" xmlns="http://www.w3.org/2000/svg">
<path d="M0.399994 4.47499C0.399994 3.52685 0.747672 2.61753 1.36654 1.94709C1.98541 1.27664 2.82478 0.899994 3.69999 0.899994H4.59999C4.83869 0.899994 5.06761 1.00272 5.23639 1.18556C5.40517 1.36841 5.49999 1.61641 5.49999 1.87499C5.49999 2.13358 5.40517 2.38158 5.23639 2.56442C5.06761 2.74727 4.83869 2.84999 4.59999 2.84999H3.69999C2.87199 2.84999 2.19999 3.57799 2.19999 4.47499V5.44999C2.19999 5.70858 2.10517 5.95658 1.93639 6.13942C1.76761 6.32227 1.53869 6.42499 1.29999 6.42499C1.0613 6.42499 0.83238 6.32227 0.663598 6.13942C0.494815 5.95658 0.399994 5.70858 0.399994 5.44999V4.47499ZM14.5 1.87499C14.5 1.61641 14.5948 1.36841 14.7636 1.18556C14.9324 1.00272 15.1613 0.899994 15.4 0.899994H16.3C17.1752 0.899994 18.0146 1.27664 18.6334 1.94709C19.2523 2.61753 19.6 3.52685 19.6 4.47499V5.44999C19.6 5.70858 19.5052 5.95658 19.3364 6.13942C19.1676 6.32227 18.9387 6.42499 18.7 6.42499C18.4613 6.42499 18.2324 6.32227 18.0636 6.13942C17.8948 5.95658 17.8 5.70858 17.8 5.44999V4.47499C17.8 3.57799 17.128 2.84999 16.3 2.84999H15.4C15.1613 2.84999 14.9324 2.74727 14.7636 2.56442C14.5948 2.38158 14.5 2.13358 14.5 1.87499ZM1.29999 13.575C1.53869 13.575 1.76761 13.6777 1.93639 13.8606C2.10517 14.0434 2.19999 14.2914 2.19999 14.55V15.525C2.19999 16.422 2.87199 17.15 3.69999 17.15H4.59999C4.83869 17.15 5.06761 17.2527 5.23639 17.4356C5.40517 17.6184 5.49999 17.8664 5.49999 18.125C5.49999 18.3836 5.40517 18.6316 5.23639 18.8144C5.06761 18.9973 4.83869 19.1 4.59999 19.1H3.69999C2.82478 19.1 1.98541 18.7233 1.36654 18.0529C0.747672 17.3825 0.399994 16.4731 0.399994 15.525V14.55C0.399994 14.2914 0.494815 14.0434 0.663598 13.8606C0.83238 13.6777 1.0613 13.575 1.29999 13.575ZM18.7 13.575C18.9387 13.575 19.1676 13.6777 19.3364 13.8606C19.5052 14.0434 19.6 14.2914 19.6 14.55V15.525C19.6 16.4731 19.2523 17.3825 18.6334 18.0529C18.0146 18.7233 17.1752 19.1 16.3 19.1H15.4C15.1613 19.1 14.9324 18.9973 14.7636 18.8144C14.5948 18.6316 14.5 18.3836 14.5 18.125C14.5 17.8664 14.5948 17.6184 14.7636 17.4356C14.9324 17.2527 15.1613 17.15 15.4 17.15H16.3C17.128 17.15 17.8 16.422 17.8 15.525V14.55C17.8 14.2914 17.8948 14.0434 18.0636 13.8606C18.2324 13.6777 18.4613 13.575 18.7 13.575ZM4.59999 4.79999C4.83869 4.79999 5.06761 4.90272 5.23639 5.08557C5.40517 5.26841 5.49999 5.51641 5.49999 5.77499V13C5.49999 13.2586 5.40517 13.5066 5.23639 13.6894C5.06761 13.8723 4.83869 13.975 4.59999 13.975C4.3613 13.975 4.13238 13.8723 3.9636 13.6894C3.79481 13.5066 3.69999 13.2586 3.69999 13V5.77499C3.69999 5.51641 3.79481 5.26841 3.9636 5.08557C4.13238 4.90272 4.3613 4.79999 4.59999 4.79999ZM9.09999 5.77499C9.09999 5.51641 9.00517 5.26841 8.83639 5.08557C8.66761 4.90272 8.43869 4.79999 8.19999 4.79999C7.9613 4.79999 7.73238 4.90272 7.5636 5.08557C7.39481 5.26841 7.29999 5.51641 7.29999 5.77499V13.2856C7.29999 13.5442 7.39481 13.7922 7.5636 13.975C7.73238 14.1578 7.9613 14.2606 8.19999 14.2606C8.43869 14.2606 8.66761 14.1578 8.83639 13.975C9.00517 13.7922 9.09999 13.5442 9.09999 13.2856V5.77499ZM11.8 4.79999C12.0387 4.79999 12.2676 4.90272 12.4364 5.08557C12.6052 5.26841 12.7 5.51641 12.7 5.77499V13.25C12.7 13.5086 12.6052 13.7566 12.4364 13.9394C12.2676 14.1223 12.0387 14.225 11.8 14.225C11.5613 14.225 11.3324 14.1223 11.1636 13.9394C10.9948 13.7566 10.9 13.5086 10.9 13.25V5.77499C10.9 5.51641 10.9948 5.26841 11.1636 5.08557C11.3324 4.90272 11.5613 4.79999 11.8 4.79999ZM16.3 5.77499C16.3 5.51641 16.2052 5.26841 16.0364 5.08557C15.8676 4.90272 15.6387 4.79999 15.4 4.79999C15.1613 4.79999 14.9324 4.90272 14.7636 5.08557C14.5948 5.26841 14.5 5.51641 14.5 5.77499V13.25C14.5 13.5086 14.5948 13.7566 14.7636 13.9394C14.9324 14.1223 15.1613 14.225 15.4 14.225C15.6387 14.225 15.8676 14.1223 16.0364 13.9394C16.2052 13.7566 16.3 13.5086 16.3 13.25V5.77499Z" fill="black"/>
<path d="M3 14H17" stroke="#EC1066" stroke-width="1.7" stroke-linecap="round"/>
</svg>
