<svg width="375" height="34" viewBox="0 0 375 34" fill="none" xmlns="http://www.w3.org/2000/svg">
<path d="M55.5276 8.8844H56.7624V11.7656H55.5276V8.8844ZM55.5276 4.2098H56.5125V4.5038C56.5125 6.8264 54.9984 8.6198 52.764 9.3254L52.2054 8.3699C54.1752 7.7819 55.5276 6.2972 55.5276 4.5038V4.2098ZM55.7628 4.2098H56.7477V4.5038C56.7477 6.2237 58.1442 7.6643 60.0993 8.2376L59.5407 9.1784C57.3063 8.5169 55.7628 6.7529 55.7628 4.5038V4.2098ZM52.5141 3.5924H59.82V4.5773H52.5141V3.5924ZM55.5276 1.946H56.7624V4.0187H55.5276V1.946ZM61.3341 1.8431H62.5542V15.1613H61.3341V1.8431ZM51.9702 12.4271L51.7938 11.3981C54.2193 11.3981 57.5709 11.3834 60.4668 10.9424L60.5697 11.8391C57.5856 12.3977 54.3369 12.4124 51.9702 12.4271ZM66.7867 2.6369H75.2686V3.6365H66.7867V2.6369ZM65.2579 7.9583H77.2972V8.9726H65.2579V7.9583ZM74.5483 2.6369H75.739V3.6806C75.739 4.9007 75.739 6.356 75.3127 8.3846L74.122 8.2523C74.5483 6.2825 74.5483 4.8713 74.5483 3.6806V2.6369ZM66.8308 13.8383H76.1359V14.8526H66.8308V13.8383ZM66.8308 10.4426H68.0509V13.9853H66.8308V10.4426Z" fill="black"/>
<path d="M137.013 3.7541H137.983V5.915C137.983 8.6786 136.293 11.5304 134.22 12.5888L133.514 11.6186C135.411 10.6925 137.013 8.1641 137.013 5.915V3.7541ZM137.234 3.7541H138.204V5.915C138.204 8.0171 139.703 10.3838 141.629 11.2952L140.938 12.2654C138.836 11.2217 137.234 8.5463 137.234 5.915V3.7541ZM133.985 3.2102H141.144V4.2392H133.985V3.2102ZM142.717 1.8578H143.952V15.1466H142.717V1.8578ZM143.658 7.2233H146.127V8.2523H143.658V7.2233ZM152.579 3.1661H153.638V3.7247C153.638 6.1061 151.109 7.8554 148.434 8.3111L147.963 7.3409C150.301 7.0028 152.579 5.474 152.579 3.7247V3.1661ZM152.888 3.1661H153.932V3.7247C153.932 5.474 156.225 7.0028 158.547 7.3409L158.092 8.3111C155.402 7.8554 152.888 6.1061 152.888 3.7247V3.1661ZM152.623 10.0751H153.829V15.1466H152.623V10.0751ZM147.258 9.4283H159.268V10.4279H147.258V9.4283ZM148.375 2.681H158.106V3.6659H148.375V2.681Z" fill="#838383"/>
<path d="M219.819 1.8578H220.995V15.1466H219.819V1.8578ZM217.585 7.2674H220.143V8.267H217.585V7.2674ZM216.806 2.1518H217.952V14.4704H216.806V2.1518ZM210.367 3.4601H211.587V11.1335H210.367V3.4601ZM210.367 10.6484H211.22C212.587 10.6484 214.116 10.5602 215.85 10.2221L215.983 11.2805C214.174 11.6333 212.646 11.7068 211.22 11.7068H210.367V10.6484ZM228.403 5.5475H231.358V6.5324H228.403V5.5475ZM228.3 8.8844H231.328V9.8693H228.3V8.8844ZM233.371 1.8578H234.547V15.1466H233.371V1.8578ZM230.711 2.1959H231.857V14.4704H230.711V2.1959ZM227.741 3.5336H228.917C228.917 7.0175 227.521 10.1486 223.949 12.2801L223.243 11.4128C226.345 9.5312 227.741 6.8852 227.741 3.7541V3.5336ZM223.831 3.5336H228.226V4.5332H223.831V3.5336ZM240.191 3.4454H241.191V4.2245C241.191 6.5618 239.662 8.4581 237.442 9.1931L236.84 8.2376C238.809 7.6055 240.191 6.0326 240.191 4.2245V3.4454ZM240.412 3.4454H241.411V4.2245C241.411 5.915 242.734 7.4144 244.675 8.0171L244.101 8.9726C241.896 8.267 240.412 6.4442 240.412 4.2245V3.4454ZM237.236 3.0779H244.351V4.0922H237.236V3.0779ZM240.191 8.6345H241.411V11.7215H240.191V8.6345ZM246.63 7.3703H249.085V8.3993H246.63V7.3703ZM245.762 1.8578H246.983V15.1466H245.762V1.8578ZM236.781 12.3683L236.619 11.354C238.956 11.354 242.19 11.354 244.925 10.9571L245.027 11.8685C242.19 12.3683 239.074 12.383 236.781 12.3683Z" fill="#838383"/>
<path d="M308.393 1.8725H309.628V9.4136H308.393V1.8725ZM301.043 10.178H309.628V14.9702H301.043V10.178ZM308.422 11.1482H302.234V13.9853H308.422V11.1482ZM302.19 2.3723H303.204V3.6659C303.204 6.1355 301.675 8.2523 299.426 9.0902L298.823 8.12C300.822 7.3997 302.19 5.6063 302.19 3.6659V2.3723ZM302.41 2.3723H303.41V3.6659C303.41 5.5475 304.791 7.2086 306.761 7.8701L306.158 8.8256C303.939 8.0612 302.41 6.0767 302.41 3.6659V2.3723ZM313.36 2.2547H323.121V3.2102H313.36V2.2547ZM313.419 5.7386H323.062V6.6794H313.419V5.7386ZM315.374 2.6222H316.594V6.356H315.374V2.6222ZM319.902 2.6222H321.107V6.356H319.902V2.6222ZM312.243 7.7819H324.253V8.7668H312.243V7.7819ZM313.698 9.9281H322.724V12.8387H314.933V14.441H313.728V11.9714H321.519V10.8395H313.698V9.9281ZM313.728 14.0735H323.121V14.9996H313.728V14.0735Z" fill="#838383"/>
<line x1="-4.37114e-08" y1="33.5" x2="375" y2="33.5" stroke="#E7E9ED"/>
</svg>
