<svg width="239" height="25" viewBox="0 0 239 25" fill="none" xmlns="http://www.w3.org/2000/svg">
<rect width="239" height="25" rx="12.5" fill="#C23536"/>
<path d="M30.533 15.362H41.427V16.766H30.533V15.362ZM35.096 12.788H36.825V15.7H35.096V12.788ZM31.677 6.886H33.393V8.732H38.528V6.886H40.244V13.152H31.677V6.886ZM33.393 10.084V11.774H38.528V10.084H33.393ZM42.947 7.614H52.879V8.992H42.947V7.614ZM42.492 15.557H53.386V16.948H42.492V15.557ZM47.055 13.971H48.771V16.103H47.055V13.971ZM47.9 9.512C50.409 9.512 51.982 10.383 51.982 11.865C51.982 13.347 50.409 14.218 47.9 14.218C45.391 14.218 43.818 13.347 43.818 11.865C43.818 10.383 45.391 9.512 47.9 9.512ZM47.9 10.851C46.392 10.851 45.586 11.176 45.586 11.865C45.586 12.554 46.392 12.866 47.9 12.866C49.408 12.866 50.214 12.554 50.214 11.865C50.214 11.176 49.408 10.851 47.9 10.851ZM47.055 6.249H48.771V8.472H47.055V6.249ZM57.142 8.017H58.507V9.369C58.507 12.086 57.363 14.855 55.153 15.895L54.178 14.53C56.167 13.594 57.142 11.345 57.142 9.369V8.017ZM57.506 8.017H58.871V9.369C58.871 11.189 59.807 13.321 61.783 14.231L60.834 15.596C58.624 14.569 57.506 11.93 57.506 9.369V8.017ZM54.646 7.276H61.25V8.693H54.646V7.276ZM62.134 6.119H63.876V18.157H62.134V6.119ZM63.486 10.708H65.618V12.138H63.486V10.708ZM71.207 10.552H73.183V11.943H71.207V10.552ZM75.094 6.119H76.745V18.157H75.094V6.119ZM72.637 6.301H74.262V17.611H72.637V6.301ZM69.101 6.964C70.7 6.964 71.727 8.615 71.727 11.332C71.727 14.062 70.7 15.713 69.101 15.713C67.515 15.713 66.501 14.062 66.501 11.332C66.501 8.615 67.515 6.964 69.101 6.964ZM69.101 8.589C68.451 8.589 68.074 9.499 68.074 11.332C68.074 13.178 68.451 14.075 69.101 14.075C69.777 14.075 70.154 13.178 70.154 11.332C70.154 9.499 69.777 8.589 69.101 8.589ZM87.0789 6.119H88.7299V18.157H87.0789V6.119ZM82.3079 10.734H84.8819V12.099H82.3079V10.734ZM84.5439 6.379H86.1559V17.624H84.5439V6.379ZM81.9179 7.536H83.5819C83.5819 10.968 82.5549 13.698 79.1749 15.661L78.1999 14.452C80.9429 12.801 81.9179 10.799 81.9179 7.887V7.536ZM78.8759 7.536H82.4639V8.914H78.8759V7.536ZM101.3 6.119H103.029V12.125H101.3V6.119ZM102.327 8.42H104.615V9.837H102.327V8.42ZM95.0732 12.606H103.029V15.908H96.8152V17.338H95.0992V14.66H101.326V13.932H95.0732V12.606ZM95.0992 16.675H103.38V18.027H95.0992V16.675ZM96.8412 6.47C98.6872 6.47 100.052 7.601 100.052 9.2C100.052 10.786 98.6872 11.93 96.8412 11.93C95.0082 11.93 93.6302 10.786 93.6302 9.2C93.6302 7.601 95.0082 6.47 96.8412 6.47ZM96.8412 7.861C95.9572 7.861 95.3072 8.355 95.3072 9.2C95.3072 10.045 95.9572 10.552 96.8412 10.552C97.7382 10.552 98.3882 10.045 98.3882 9.2C98.3882 8.355 97.7382 7.861 96.8412 7.861ZM113.779 6.119H115.521V13.256H113.779V6.119ZM106.135 11.462H107.188C109.528 11.462 111.049 11.423 112.791 11.137L112.986 12.502C111.192 12.814 109.593 12.866 107.188 12.866H106.135V11.462ZM106.122 6.808H111.66V10.435H107.838V12.294H106.135V9.148H109.957V8.173H106.122V6.808ZM107.513 13.802H115.521V18.027H107.513V13.802ZM113.818 15.154H109.203V16.662H113.818V15.154ZM125.725 6.106H127.467V18.183H125.725V6.106ZM120.98 6.951C122.8 6.951 124.139 8.615 124.139 11.241C124.139 13.893 122.8 15.557 120.98 15.557C119.16 15.557 117.821 13.893 117.821 11.241C117.821 8.615 119.16 6.951 120.98 6.951ZM120.98 8.524C120.083 8.524 119.472 9.473 119.472 11.241C119.472 13.035 120.083 13.997 120.98 13.997C121.877 13.997 122.475 13.035 122.475 11.241C122.475 9.473 121.877 8.524 120.98 8.524ZM139.114 9.226H141.922V10.617H139.114V9.226ZM141.012 6.132H142.741V14.907H141.012V6.132ZM134.798 16.571H143.014V17.949H134.798V16.571ZM134.798 14.166H136.527V17.39H134.798V14.166ZM135.448 7.705H136.852V8.459C136.852 10.721 135.786 12.814 133.472 13.581L132.601 12.203C134.59 11.553 135.448 9.98 135.448 8.459V7.705ZM135.812 7.705H137.203V8.459C137.203 9.863 138.022 11.358 139.92 11.995L139.075 13.347C136.839 12.606 135.812 10.604 135.812 8.459V7.705ZM133.069 6.938H139.543V8.303H133.069V6.938ZM149.188 10.383H150.904V12.541H149.188V10.383ZM149.162 6.327H150.644V6.691C150.644 8.914 148.876 10.656 145.808 11.098L145.171 9.746C147.875 9.421 149.162 8.043 149.162 6.691V6.327ZM149.448 6.327H150.93V6.691C150.93 8.095 152.191 9.421 154.921 9.746L154.284 11.098C151.216 10.643 149.448 8.966 149.448 6.691V6.327ZM144.625 11.865H155.506V13.217H144.625V11.865ZM150.046 13.88C152.659 13.88 154.219 14.66 154.219 16.025C154.219 17.403 152.659 18.157 150.046 18.157C147.433 18.157 145.86 17.403 145.86 16.025C145.86 14.66 147.433 13.88 150.046 13.88ZM150.046 15.18C148.421 15.18 147.615 15.44 147.615 16.025C147.615 16.61 148.421 16.87 150.046 16.87C151.671 16.87 152.477 16.61 152.477 16.025C152.477 15.44 151.671 15.18 150.046 15.18ZM157.403 10.994H163.695V12.372H157.403V10.994ZM159.665 12.112H161.407V14.647H159.665V12.112ZM157.403 7.185H163.617V8.55H159.132V11.423H157.403V7.185ZM164.904 6.106H166.633V18.183H164.904V6.106ZM156.844 15.804L156.636 14.413C158.937 14.413 161.771 14.4 164.241 14.127L164.371 15.388C161.771 15.791 159.08 15.817 156.844 15.804ZM171.39 13.321H172.703V13.776C172.703 15.622 171.897 17.312 170.012 18.001L169.167 16.74C170.74 16.194 171.39 14.972 171.39 13.776V13.321ZM171.832 13.321H173.08V13.776C173.08 14.972 173.652 16.233 175.147 16.857L174.432 18.118C172.521 17.403 171.832 15.57 171.832 13.776V13.321ZM175.784 13.321H177.019V13.776C177.019 15.453 176.317 17.364 174.432 18.118L173.717 16.857C175.199 16.168 175.784 14.855 175.784 13.776V13.321ZM176.187 13.321H177.487V13.776C177.487 15.05 178.124 16.233 179.736 16.74L178.865 18.001C176.967 17.338 176.187 15.7 176.187 13.776V13.321ZM174.406 8.901H177.253V10.305H174.406V8.901ZM171.871 6.73C173.665 6.73 175.043 7.939 175.043 9.616C175.043 11.293 173.665 12.502 171.871 12.502C170.064 12.502 168.699 11.293 168.699 9.616C168.699 7.939 170.064 6.73 171.871 6.73ZM171.871 8.16C170.987 8.16 170.35 8.706 170.35 9.616C170.35 10.526 170.987 11.072 171.871 11.072C172.742 11.072 173.392 10.526 173.392 9.616C173.392 8.706 172.742 8.16 171.871 8.16ZM176.889 6.119H178.618V12.853H176.889V6.119ZM181.776 13.334H183.479V14.348H188.302V13.334H190.018V18.027H181.776V13.334ZM183.479 15.635V16.675H188.302V15.635H183.479ZM180.502 11.371H191.383V12.736H180.502V11.371ZM185.065 6.249H186.547V6.613C186.547 8.706 184.753 10.435 181.646 10.838L181.035 9.499C183.752 9.174 185.065 7.835 185.065 6.613V6.249ZM185.351 6.249H186.833V6.613C186.833 7.822 188.146 9.174 190.85 9.499L190.239 10.838C187.132 10.435 185.351 8.693 185.351 6.613V6.249ZM200.794 6.119H202.523V18.157H200.794V6.119ZM193.098 7.263H194.814V14.738H193.098V7.263ZM193.098 13.724H194.164C195.919 13.724 197.869 13.594 199.858 13.204L200.053 14.634C197.986 15.063 195.997 15.193 194.164 15.193H193.098V13.724ZM212.116 6.106H213.858V18.183H212.116V6.106ZM213.468 10.565H215.6V11.982H213.468V10.565ZM204.888 13.854H205.902C207.93 13.854 209.529 13.789 211.297 13.477L211.466 14.907C209.646 15.232 207.995 15.284 205.902 15.284H204.888V13.854ZM204.888 7.224H210.504V8.615H206.604V14.543H204.888V7.224Z" fill="white"/>
</svg>
