<svg width="108" height="17" viewBox="0 0 108 17" fill="none" xmlns="http://www.w3.org/2000/svg">
<path d="M23.318 3.7525H26.99V4.6705H23.318V3.7525ZM23.318 6.682H26.99V7.6H23.318V6.682ZM26.585 1.8625H27.7055V10.8805H26.585V1.8625ZM19.916 12.865H28.043V13.783H19.916V12.865ZM19.916 9.949H21.0365V13.27H19.916V9.949ZM20.996 2.632C22.7915 2.632 24.1415 3.8875 24.1415 5.683C24.1415 7.4785 22.7915 8.734 20.996 8.734C19.2005 8.734 17.8505 7.4785 17.8505 5.683C17.8505 3.8875 19.2005 2.632 20.996 2.632ZM20.996 3.6175C19.808 3.6175 18.9305 4.4815 18.9305 5.683C18.9305 6.898 19.808 7.762 20.996 7.762C22.184 7.762 23.075 6.898 23.075 5.683C23.075 4.4815 22.184 3.6175 20.996 3.6175ZM30.6204 7.6945H31.5789C33.7929 7.6945 35.3724 7.627 37.2759 7.303L37.3704 8.221C35.4399 8.5585 33.8334 8.626 31.5789 8.626H30.6204V7.6945ZM30.5934 2.5645H36.0879V5.953H31.7139V8.1535H30.6204V5.089H34.9809V3.4825H30.5934V2.5645ZM38.4369 1.8625H39.5574V9.274H38.4369V1.8625ZM39.2199 4.9675H41.3664V5.9125H39.2199V4.9675ZM31.6329 9.9085H39.5574V14.053H38.4369V10.8265H31.6329V9.9085ZM51.4364 1.8355H52.5434V14.0665H51.4364V1.8355ZM48.8039 6.736H51.7604V7.6675H48.8039V6.736ZM45.6179 4.7515H46.5089V5.791C46.5089 8.3695 45.0914 10.7455 43.1609 11.704L42.5264 10.84C44.3219 9.976 45.6179 7.897 45.6179 5.791V4.7515ZM45.8339 4.7515H46.7114V5.791C46.7114 7.8025 48.0479 9.787 49.8434 10.6105L49.2224 11.4745C47.2649 10.57 45.8339 8.2885 45.8339 5.791V4.7515ZM42.8639 3.9685H49.4249V4.873H42.8639V3.9685ZM45.6044 2.065H46.7249V4.468H45.6044V2.065ZM54.9318 11.623H65.9883V12.5545H54.9318V11.623ZM59.8728 9.004H60.9933V12.0145H59.8728V9.004ZM56.2683 2.7535H64.6248V6.4525H57.4158V8.896H56.3088V5.548H63.5178V3.658H56.2683V2.7535ZM56.3088 8.4235H64.9083V9.3415H56.3088V8.4235ZM70.6994 11.569H81.7559V12.5005H70.6994V11.569ZM75.6404 8.653H76.7609V11.839H75.6404V8.653ZM71.9954 2.713H73.1024V4.8865H79.3259V2.713H80.4329V8.95H71.9954V2.713ZM73.1024 5.791V8.032H79.3259V5.791H73.1024ZM92.3794 1.849H93.4594V14.053H92.3794V1.849ZM90.3274 6.817H92.6764V7.735H90.3274V6.817ZM89.6119 2.119H90.6649V13.432H89.6119V2.119ZM83.6989 3.3205H84.8194V10.3675H83.6989V3.3205ZM83.6989 9.922H84.4819C85.7374 9.922 87.1414 9.841 88.7344 9.5305L88.8559 10.5025C87.1954 10.8265 85.7914 10.894 84.4819 10.894H83.6989V9.922ZM104.42 1.849H105.541V14.053H104.42V1.849ZM100.843 3.1585H101.95C101.95 6.6955 100.357 9.787 96.2798 11.785L95.6858 10.8805C99.2093 9.1795 100.843 6.5875 100.843 3.3475V3.1585ZM96.2393 3.1585H101.329V4.0765H96.2393V3.1585Z" fill="#666666"/>
<rect x="2.5" y="2.5" width="6" height="6" rx="3" stroke="#666666"/>
<path d="M1 14C1.31579 11.5034 4.31579 6.95096 10 10.035" stroke="#666666" stroke-linecap="round"/>
<path d="M7 14H13M13 14L10.5 11.5M13 14L10.5 16.5" stroke="#666666" stroke-linecap="round"/>
</svg>
