<svg width="294" height="87" viewBox="0 0 294 87" fill="none" xmlns="http://www.w3.org/2000/svg">
<rect width="294" height="87" rx="7" fill="#F1F1F1"/>
<path d="M58.087 9.941H59.481V25.343H58.087V9.941ZM54.772 15.551H58.495V16.707H54.772V15.551ZM50.743 12.151H51.882V14.446C51.882 17.761 49.978 21.042 47.547 22.3L46.714 21.178C48.924 20.09 50.743 17.183 50.743 14.446V12.151ZM51.032 12.151H52.154V14.446C52.154 17.013 53.939 19.818 56.166 20.872L55.333 21.977C52.902 20.77 51.032 17.608 51.032 14.446V12.151ZM47.275 11.522H55.639V12.695H47.275V11.522ZM68.7277 18.509H70.1217V20.923H68.7277V18.509ZM62.4717 17.693H76.3607V18.832H62.4717V17.693ZM64.0187 20.566H74.6437V25.275H73.2327V21.722H64.0187V20.566ZM68.7277 9.873H70.1217V12.015H68.7277V9.873ZM68.6597 12.202H69.9007V12.457C69.9007 14.99 67.0957 16.469 63.7467 16.826L63.3047 15.755C66.2797 15.483 68.6597 14.225 68.6597 12.457V12.202ZM68.9487 12.202H70.1897V12.457C70.1897 14.225 72.5697 15.483 75.5447 15.755L75.1027 16.826C71.7367 16.469 68.9487 14.99 68.9487 12.457V12.202ZM63.8997 11.454H74.9497V12.593H63.8997V11.454ZM84.2473 13.664H87.2393V14.837H84.2473V13.664ZM84.2473 18.339H87.2393V19.512H84.2473V18.339ZM89.8233 9.958H91.1833V25.326H89.8233V9.958ZM86.8143 10.281H88.1403V24.561H86.8143V10.281ZM81.5783 11.233C83.5673 11.233 84.8593 13.29 84.8593 16.588C84.8593 19.886 83.5673 21.943 81.5783 21.943C79.5893 21.943 78.3143 19.886 78.3143 16.588C78.3143 13.29 79.5893 11.233 81.5783 11.233ZM81.5783 12.542C80.3713 12.542 79.5893 14.106 79.5893 16.588C79.5893 19.07 80.3713 20.634 81.5783 20.634C82.8023 20.634 83.5673 19.07 83.5673 16.588C83.5673 14.106 82.8023 12.542 81.5783 12.542ZM95.534 10.757H105.428V11.913H95.534V10.757ZM93.766 16.418H107.689V17.574H93.766V16.418ZM104.51 10.757H105.887V11.896C105.887 13.205 105.887 14.701 105.377 16.826L104 16.758C104.51 14.65 104.51 13.171 104.51 11.896V10.757ZM95.466 19.665H105.938V25.122H95.466V19.665ZM104.561 20.787H96.843V23.983H104.561V20.787Z" fill="black"/>
<path d="M54.93 31.61H56.175V45.17H54.93V31.61ZM55.875 37.175H58.395V38.225H55.875V37.175ZM45.675 33.77H53.67V34.79H45.675V33.77ZM49.725 35.915C51.645 35.915 53.025 37.205 53.025 39.035C53.025 40.865 51.645 42.155 49.725 42.155C47.82 42.155 46.425 40.865 46.425 39.035C46.425 37.205 47.82 35.915 49.725 35.915ZM49.725 36.95C48.495 36.95 47.61 37.805 47.61 39.035C47.61 40.25 48.495 41.12 49.725 41.12C50.955 41.12 51.84 40.25 51.84 39.035C51.84 37.805 50.955 36.95 49.725 36.95ZM49.08 31.775H50.325V34.235H49.08V31.775ZM69.6288 37.01H72.1338V38.06H69.6288V37.01ZM68.7138 31.595H69.9738V45.17H68.7138V31.595ZM60.0738 32.93H61.3188V41.33H60.0738V32.93ZM60.0738 40.685H61.1538C63.1638 40.685 65.2188 40.55 67.4538 40.085L67.6038 41.12C65.2938 41.6 63.2088 41.735 61.1538 41.735H60.0738V40.685ZM81.2844 34.1818V44H80.0955V35.4283H80.038L77.641 37.0199V35.8118L80.0955 34.1818H81.2844ZM84.1081 44V43.1371L87.3489 39.5895C87.7292 39.174 88.0424 38.8129 88.2885 38.506C88.5346 38.196 88.7168 37.9052 88.835 37.6335C88.9565 37.3587 89.0172 37.071 89.0172 36.7706C89.0172 36.4254 88.9341 36.1266 88.7679 35.8741C88.6049 35.6216 88.3812 35.4267 88.0968 35.2892C87.8123 35.1518 87.4927 35.0831 87.138 35.0831C86.7608 35.0831 86.4316 35.1614 86.1504 35.318C85.8723 35.4714 85.6566 35.6871 85.5032 35.9652C85.353 36.2433 85.2779 36.5692 85.2779 36.9432H84.1465C84.1465 36.3679 84.2791 35.8629 84.5444 35.4283C84.8097 34.9936 85.1708 34.6548 85.6278 34.4119C86.0881 34.169 86.6042 34.0476 87.1763 34.0476C87.7516 34.0476 88.2614 34.169 88.7056 34.4119C89.1499 34.6548 89.4982 34.9824 89.7507 35.3947C90.0032 35.807 90.1294 36.2656 90.1294 36.7706C90.1294 37.1317 90.0639 37.4849 89.9329 37.8301C89.805 38.1721 89.5813 38.554 89.2617 38.9759C88.9453 39.3945 88.5059 39.9059 87.9434 40.5099L85.7381 42.8686V42.9453H90.302V44H84.1081ZM95.5994 44.1342C94.9666 44.1342 94.4025 44.0256 93.9071 43.8082C93.415 43.5909 93.0234 43.2889 92.7326 42.9022C92.445 42.5123 92.2884 42.06 92.2628 41.5455H93.4709C93.4964 41.8619 93.6051 42.1351 93.7969 42.3652C93.9886 42.5922 94.2395 42.7679 94.5495 42.8926C94.8596 43.0172 95.2031 43.0795 95.5803 43.0795C96.0021 43.0795 96.3761 43.006 96.7021 42.859C97.0281 42.712 97.2837 42.5075 97.4691 42.2454C97.6545 41.9833 97.7472 41.6797 97.7472 41.3345C97.7472 40.9734 97.6577 40.6554 97.4787 40.3805C97.2997 40.1025 97.0376 39.8851 96.6925 39.7285C96.3473 39.5719 95.9254 39.4936 95.4268 39.4936H94.6406V38.4389H95.4268C95.8168 38.4389 96.1587 38.3686 96.4528 38.228C96.75 38.0874 96.9817 37.8892 97.1479 37.6335C97.3173 37.3778 97.402 37.0774 97.402 36.7322C97.402 36.3999 97.3285 36.1106 97.1815 35.8645C97.0344 35.6184 96.8267 35.4267 96.5582 35.2892C96.293 35.1518 95.9798 35.0831 95.6186 35.0831C95.2798 35.0831 94.9602 35.1454 94.6598 35.2701C94.3626 35.3915 94.1197 35.5689 93.9311 35.8022C93.7425 36.0323 93.6403 36.3104 93.6243 36.6364H92.4737C92.4929 36.1218 92.6479 35.6712 92.9387 35.2844C93.2296 34.8945 93.6099 34.5909 94.0797 34.3736C94.5527 34.1562 95.0721 34.0476 95.6378 34.0476C96.245 34.0476 96.766 34.1706 97.2006 34.4167C97.6353 34.6596 97.9693 34.9808 98.2026 35.3803C98.4359 35.7798 98.5526 36.2113 98.5526 36.6747C98.5526 37.2276 98.4071 37.699 98.1163 38.089C97.8287 38.4789 97.4371 38.7489 96.9418 38.8991V38.9759C97.5618 39.0781 98.046 39.3418 98.3944 39.7669C98.7427 40.1887 98.9169 40.7113 98.9169 41.3345C98.9169 41.8683 98.7715 42.3477 98.4806 42.7727C98.193 43.1946 97.7999 43.527 97.3013 43.7699C96.8027 44.0128 96.2354 44.1342 95.5994 44.1342ZM105.116 38.5636V39.6183H100.82V38.5636H105.116ZM106.857 41.9865V41.0085L111.172 34.1818H111.881V35.6967H111.402L108.142 40.8551V40.9318H113.952V41.9865H106.857ZM111.478 44V41.6893V41.2338V34.1818H112.61V44H111.478ZM118.817 44.1342C118.254 44.1342 117.748 44.0224 117.297 43.7987C116.847 43.5749 116.485 43.2681 116.214 42.8782C115.942 42.4883 115.794 42.044 115.768 41.5455H116.919C116.963 41.9897 117.165 42.3572 117.523 42.6481C117.884 42.9357 118.315 43.0795 118.817 43.0795C119.22 43.0795 119.578 42.9853 119.891 42.7967C120.207 42.6081 120.455 42.3493 120.634 42.0201C120.816 41.6877 120.907 41.3121 120.907 40.8935C120.907 40.4652 120.813 40.0833 120.624 39.7477C120.439 39.4089 120.183 39.142 119.857 38.9471C119.531 38.7521 119.159 38.6531 118.74 38.6499C118.44 38.6467 118.131 38.693 117.815 38.7889C117.499 38.8816 117.238 39.0014 117.034 39.1484L115.921 39.0142L116.516 34.1818H121.617V35.2365H117.513L117.168 38.1321H117.225C117.427 37.9723 117.679 37.8397 117.983 37.7342C118.286 37.6287 118.603 37.576 118.932 37.576C119.533 37.576 120.068 37.7198 120.538 38.0075C121.011 38.2919 121.382 38.6818 121.65 39.1772C121.922 39.6726 122.058 40.2383 122.058 40.8743C122.058 41.5007 121.917 42.06 121.636 42.5522C121.358 43.0412 120.974 43.4279 120.485 43.7124C119.996 43.9936 119.44 44.1342 118.817 44.1342ZM127.222 44.1342C126.819 44.1278 126.417 44.0511 126.014 43.9041C125.611 43.7571 125.244 43.5094 124.911 43.161C124.579 42.8095 124.312 42.3349 124.111 41.7372C123.909 41.1364 123.809 40.3821 123.809 39.4744C123.809 38.6051 123.89 37.8349 124.053 37.1637C124.216 36.4893 124.453 35.9221 124.763 35.4618C125.073 34.9984 125.447 34.6468 125.885 34.4071C126.326 34.1674 126.823 34.0476 127.375 34.0476C127.925 34.0476 128.414 34.1578 128.842 34.3784C129.274 34.5957 129.625 34.8993 129.897 35.2892C130.169 35.6792 130.345 36.1282 130.424 36.6364H129.255C129.146 36.1953 128.935 35.8294 128.622 35.5385C128.309 35.2477 127.893 35.1023 127.375 35.1023C126.615 35.1023 126.016 35.4331 125.578 36.0946C125.143 36.7562 124.924 37.6847 124.921 38.88H124.998C125.177 38.6083 125.389 38.3766 125.635 38.1848C125.885 37.9899 126.159 37.8397 126.46 37.7342C126.76 37.6287 127.078 37.576 127.414 37.576C127.976 37.576 128.491 37.7166 128.958 37.9979C129.424 38.2759 129.798 38.661 130.079 39.1532C130.361 39.6422 130.501 40.2031 130.501 40.8359C130.501 41.4432 130.365 41.9993 130.094 42.5043C129.822 43.006 129.44 43.4055 128.948 43.7028C128.459 43.9968 127.884 44.1406 127.222 44.1342ZM127.222 43.0795C127.625 43.0795 127.986 42.9789 128.306 42.7775C128.628 42.5762 128.882 42.3061 129.068 41.9673C129.256 41.6286 129.351 41.2514 129.351 40.8359C129.351 40.43 129.26 40.0609 129.077 39.7285C128.898 39.3929 128.651 39.1261 128.334 38.9279C128.021 38.7298 127.663 38.6307 127.26 38.6307C126.957 38.6307 126.674 38.6914 126.412 38.8129C126.15 38.9311 125.92 39.0941 125.722 39.3018C125.527 39.5096 125.373 39.7477 125.261 40.0162C125.149 40.2814 125.094 40.5611 125.094 40.8551C125.094 41.245 125.185 41.6094 125.367 41.9482C125.552 42.2869 125.805 42.5602 126.124 42.7679C126.447 42.9757 126.813 43.0795 127.222 43.0795ZM132.693 44L137.085 35.3132V35.2365H132.022V34.1818H138.312V35.294L133.94 44H132.693ZM143.046 44.1342C142.388 44.1342 141.806 44.0176 141.301 43.7843C140.799 43.5478 140.408 43.2234 140.126 42.8111C139.845 42.3956 139.706 41.9226 139.709 41.392C139.706 40.9766 139.788 40.593 139.954 40.2415C140.12 39.8867 140.347 39.5911 140.635 39.3546C140.925 39.1149 141.25 38.9631 141.608 38.8991V38.8416C141.138 38.7202 140.764 38.4565 140.486 38.0506C140.208 37.6415 140.07 37.1765 140.074 36.6555C140.07 36.157 140.197 35.7111 140.452 35.318C140.708 34.9249 141.06 34.6149 141.507 34.388C141.958 34.161 142.471 34.0476 143.046 34.0476C143.615 34.0476 144.123 34.161 144.57 34.388C145.018 34.6149 145.369 34.9249 145.625 35.318C145.884 35.7111 146.015 36.157 146.018 36.6555C146.015 37.1765 145.873 37.6415 145.592 38.0506C145.314 38.4565 144.944 38.7202 144.484 38.8416V38.8991C144.839 38.9631 145.159 39.1149 145.443 39.3546C145.727 39.5911 145.954 39.8867 146.124 40.2415C146.293 40.593 146.379 40.9766 146.383 41.392C146.379 41.9226 146.236 42.3956 145.951 42.8111C145.67 43.2234 145.278 43.5478 144.777 43.7843C144.278 44.0176 143.701 44.1342 143.046 44.1342ZM143.046 43.0795C143.49 43.0795 143.874 43.0076 144.197 42.8638C144.519 42.72 144.769 42.517 144.944 42.255C145.12 41.9929 145.21 41.6861 145.213 41.3345C145.21 40.9638 145.114 40.6362 144.925 40.3517C144.737 40.0673 144.479 39.8436 144.153 39.6806C143.831 39.5176 143.461 39.4361 143.046 39.4361C142.627 39.4361 142.253 39.5176 141.924 39.6806C141.598 39.8436 141.341 40.0673 141.152 40.3517C140.967 40.6362 140.876 40.9638 140.879 41.3345C140.876 41.6861 140.961 41.9929 141.133 42.255C141.309 42.517 141.56 42.72 141.886 42.8638C142.212 43.0076 142.599 43.0795 143.046 43.0795ZM143.046 38.4197C143.398 38.4197 143.709 38.3494 143.981 38.2088C144.256 38.0682 144.471 37.8716 144.628 37.6191C144.785 37.3667 144.865 37.071 144.868 36.7322C144.865 36.3999 144.786 36.1106 144.633 35.8645C144.479 35.6152 144.267 35.4235 143.995 35.2892C143.724 35.1518 143.407 35.0831 143.046 35.0831C142.678 35.0831 142.357 35.1518 142.082 35.2892C141.808 35.4235 141.595 35.6152 141.445 35.8645C141.295 36.1106 141.221 36.3999 141.224 36.7322C141.221 37.071 141.296 37.3667 141.45 37.6191C141.606 37.8716 141.822 38.0682 142.097 38.2088C142.372 38.3494 142.688 38.4197 143.046 38.4197ZM151.346 34.0476C151.748 34.0508 152.151 34.1275 152.554 34.2777C152.956 34.4279 153.324 34.6772 153.656 35.0256C153.989 35.3707 154.256 35.8422 154.457 36.4398C154.658 37.0375 154.759 37.7869 154.759 38.6882C154.759 39.5607 154.676 40.3358 154.51 41.0133C154.347 41.6877 154.11 42.2566 153.8 42.72C153.493 43.1834 153.119 43.535 152.678 43.7747C152.241 44.0144 151.745 44.1342 151.192 44.1342C150.643 44.1342 150.152 44.0256 149.72 43.8082C149.292 43.5877 148.941 43.2825 148.666 42.8926C148.394 42.4995 148.22 42.044 148.143 41.5263H149.313C149.418 41.9769 149.628 42.3493 149.941 42.6433C150.257 42.9341 150.674 43.0795 151.192 43.0795C151.95 43.0795 152.547 42.7488 152.985 42.0872C153.426 41.4256 153.647 40.4908 153.647 39.2827H153.57C153.391 39.5511 153.179 39.7828 152.932 39.9778C152.686 40.1728 152.413 40.323 152.113 40.4284C151.812 40.5339 151.493 40.5866 151.154 40.5866C150.591 40.5866 150.075 40.4476 149.605 40.1696C149.139 39.8883 148.765 39.5032 148.484 39.0142C148.206 38.522 148.067 37.9595 148.067 37.3267C148.067 36.7259 148.201 36.1761 148.469 35.6776C148.741 35.1758 149.121 34.7763 149.61 34.479C150.102 34.1818 150.681 34.038 151.346 34.0476ZM151.346 35.1023C150.943 35.1023 150.58 35.2029 150.257 35.4043C149.938 35.6024 149.684 35.8709 149.495 36.2097C149.31 36.5453 149.217 36.9176 149.217 37.3267C149.217 37.7358 149.307 38.1081 149.486 38.4437C149.668 38.7761 149.915 39.0414 150.229 39.2395C150.545 39.4345 150.905 39.532 151.307 39.532C151.611 39.532 151.894 39.4728 152.156 39.3546C152.418 39.2331 152.646 39.0685 152.841 38.8608C153.04 38.6499 153.195 38.4118 153.306 38.1465C153.418 37.878 153.474 37.5984 153.474 37.3075C153.474 36.924 153.382 36.5645 153.196 36.2289C153.014 35.8933 152.761 35.6216 152.439 35.4139C152.119 35.2061 151.755 35.1023 151.346 35.1023ZM160.882 38.5636V39.6183H156.587V38.5636H160.882ZM166.056 44.1342C165.334 44.1342 164.719 43.9377 164.21 43.5446C163.702 43.1483 163.314 42.5746 163.045 41.8235C162.777 41.0692 162.643 40.1584 162.643 39.0909C162.643 38.0298 162.777 37.1238 163.045 36.3727C163.317 35.6184 163.707 35.0431 164.215 34.6468C164.727 34.2473 165.34 34.0476 166.056 34.0476C166.772 34.0476 167.384 34.2473 167.892 34.6468C168.404 35.0431 168.794 35.6184 169.062 36.3727C169.334 37.1238 169.47 38.0298 169.47 39.0909C169.47 40.1584 169.335 41.0692 169.067 41.8235C168.798 42.5746 168.41 43.1483 167.902 43.5446C167.394 43.9377 166.778 44.1342 166.056 44.1342ZM166.056 43.0795C166.772 43.0795 167.328 42.7344 167.724 42.044C168.121 41.3537 168.319 40.3693 168.319 39.0909C168.319 38.2408 168.228 37.5169 168.046 36.9192C167.867 36.3216 167.608 35.8661 167.269 35.5529C166.933 35.2397 166.529 35.0831 166.056 35.0831C165.347 35.0831 164.792 35.4331 164.393 36.133C163.993 36.8297 163.793 37.8157 163.793 39.0909C163.793 39.9411 163.883 40.6634 164.062 41.2578C164.241 41.8523 164.498 42.3045 164.834 42.6145C165.172 42.9245 165.58 43.0795 166.056 43.0795ZM174.743 34.1818V44H173.554V35.4283H173.496L171.099 37.0199V35.8118L173.554 34.1818H174.743ZM177.567 44V43.1371L180.807 39.5895C181.188 39.174 181.501 38.8129 181.747 38.506C181.993 38.196 182.175 37.9052 182.294 37.6335C182.415 37.3587 182.476 37.071 182.476 36.7706C182.476 36.4254 182.393 36.1266 182.226 35.8741C182.063 35.6216 181.84 35.4267 181.555 35.2892C181.271 35.1518 180.951 35.0831 180.596 35.0831C180.219 35.0831 179.89 35.1614 179.609 35.318C179.331 35.4714 179.115 35.6871 178.962 35.9652C178.811 36.2433 178.736 36.5692 178.736 36.9432H177.605C177.605 36.3679 177.738 35.8629 178.003 35.4283C178.268 34.9936 178.629 34.6548 179.086 34.4119C179.547 34.169 180.063 34.0476 180.635 34.0476C181.21 34.0476 181.72 34.169 182.164 34.4119C182.608 34.6548 182.957 34.9824 183.209 35.3947C183.462 35.807 183.588 36.2656 183.588 36.7706C183.588 37.1317 183.522 37.4849 183.391 37.8301C183.264 38.1721 183.04 38.554 182.72 38.9759C182.404 39.3945 181.964 39.9059 181.402 40.5099L179.197 42.8686V42.9453H183.761V44H177.567ZM189.058 44.1342C188.425 44.1342 187.861 44.0256 187.366 43.8082C186.873 43.5909 186.482 43.2889 186.191 42.9022C185.903 42.5123 185.747 42.06 185.721 41.5455H186.929C186.955 41.8619 187.064 42.1351 187.255 42.3652C187.447 42.5922 187.698 42.7679 188.008 42.8926C188.318 43.0172 188.662 43.0795 189.039 43.0795C189.461 43.0795 189.835 43.006 190.161 42.859C190.487 42.712 190.742 42.5075 190.928 42.2454C191.113 41.9833 191.206 41.6797 191.206 41.3345C191.206 40.9734 191.116 40.6554 190.937 40.3805C190.758 40.1025 190.496 39.8851 190.151 39.7285C189.806 39.5719 189.384 39.4936 188.885 39.4936H188.099V38.4389H188.885C189.275 38.4389 189.617 38.3686 189.911 38.228C190.208 38.0874 190.44 37.8892 190.606 37.6335C190.776 37.3778 190.86 37.0774 190.86 36.7322C190.86 36.3999 190.787 36.1106 190.64 35.8645C190.493 35.6184 190.285 35.4267 190.017 35.2892C189.751 35.1518 189.438 35.0831 189.077 35.0831C188.738 35.0831 188.419 35.1454 188.118 35.2701C187.821 35.3915 187.578 35.5689 187.39 35.8022C187.201 36.0323 187.099 36.3104 187.083 36.6364H185.932C185.951 36.1218 186.106 35.6712 186.397 35.2844C186.688 34.8945 187.068 34.5909 187.538 34.3736C188.011 34.1562 188.531 34.0476 189.096 34.0476C189.704 34.0476 190.224 34.1706 190.659 34.4167C191.094 34.6596 191.428 34.9808 191.661 35.3803C191.894 35.7798 192.011 36.2113 192.011 36.6747C192.011 37.2276 191.866 37.699 191.575 38.089C191.287 38.4789 190.896 38.7489 190.4 38.8991V38.9759C191.02 39.0781 191.504 39.3418 191.853 39.7669C192.201 40.1887 192.375 40.7113 192.375 41.3345C192.375 41.8683 192.23 42.3477 191.939 42.7727C191.652 43.1946 191.258 43.527 190.76 43.7699C190.261 44.0128 189.694 44.1342 189.058 44.1342ZM194.106 41.9865V41.0085L198.421 34.1818H199.13V35.6967H198.651L195.391 40.8551V40.9318H201.201V41.9865H194.106ZM198.727 44V41.6893V41.2338V34.1818H199.859V44H198.727Z" fill="#676767"/>
<path d="M245.688 76.1491C244.885 76.1491 244.201 75.9308 243.637 75.494C243.072 75.0536 242.641 74.4162 242.342 73.5817C242.044 72.7436 241.895 71.7315 241.895 70.5455C241.895 69.3665 242.044 68.3597 242.342 67.5252C242.644 66.6871 243.077 66.0479 243.642 65.6076C244.21 65.1637 244.892 64.9418 245.688 64.9418C246.483 64.9418 247.163 65.1637 247.728 65.6076C248.296 66.0479 248.729 66.6871 249.027 67.5252C249.329 68.3597 249.48 69.3665 249.48 70.5455C249.48 71.7315 249.331 72.7436 249.033 73.5817C248.734 74.4162 248.303 75.0536 247.738 75.494C247.174 75.9308 246.49 76.1491 245.688 76.1491ZM245.688 74.9773C246.483 74.9773 247.101 74.5937 247.541 73.8267C247.982 73.0597 248.202 71.9659 248.202 70.5455C248.202 69.6009 248.1 68.7965 247.898 68.1325C247.699 67.4684 247.412 66.9624 247.035 66.6143C246.662 66.2663 246.213 66.0923 245.688 66.0923C244.899 66.0923 244.283 66.4812 243.839 67.2589C243.395 68.033 243.173 69.1286 243.173 70.5455C243.173 71.4901 243.273 72.2926 243.472 72.9531C243.67 73.6136 243.956 74.1161 244.329 74.4606C244.706 74.805 245.158 74.9773 245.688 74.9773ZM254.965 70.435H256.21V73.45H254.965V70.435ZM260.98 63.61H262.225V73.93H260.98V63.61ZM252.97 75.85H262.555V76.87H252.97V75.85ZM252.97 72.925H254.215V76.135H252.97V72.925ZM251.215 70.9L251.05 69.88C253.555 69.88 256.915 69.85 259.795 69.475L259.885 70.39C256.96 70.855 253.675 70.9 251.215 70.9ZM258.22 71.62H261.295V72.535H258.22V71.62ZM255.46 64.165C257.44 64.165 258.79 65.095 258.79 66.52C258.79 67.96 257.44 68.89 255.46 68.89C253.465 68.89 252.115 67.96 252.115 66.52C252.115 65.095 253.465 64.165 255.46 64.165ZM255.46 65.095C254.185 65.095 253.3 65.65 253.3 66.52C253.3 67.39 254.185 67.945 255.46 67.945C256.72 67.945 257.605 67.39 257.605 66.52C257.605 65.65 256.72 65.095 255.46 65.095Z" fill="#1D1D1D"/>
<path d="M270.571 45.0429L275.182 41.3218C275.227 41.2855 275.28 41.2567 275.339 41.2373C275.398 41.2179 275.461 41.2083 275.524 41.2089C275.588 41.2095 275.65 41.2204 275.709 41.241C275.767 41.2615 275.819 41.2913 275.863 41.3285C275.952 41.4046 276.002 41.506 276 41.611C275.998 41.7159 275.946 41.8163 275.855 41.8907L270.902 45.8868C270.858 45.923 270.805 45.9516 270.746 45.971C270.688 45.9905 270.626 46.0003 270.563 46C270.5 45.9997 270.437 45.9892 270.379 45.9692C270.321 45.9492 270.269 45.9201 270.225 45.8835L265.14 41.6774C265.05 41.6021 265 41.5015 265 41.3968C265 41.2922 265.05 41.1916 265.14 41.1163C265.184 41.0795 265.237 41.0502 265.296 41.0303C265.354 41.0103 265.417 41 265.481 41C265.544 41 265.607 41.0103 265.665 41.0303C265.724 41.0502 265.777 41.0795 265.821 41.1163L270.571 45.0429Z" fill="#676767"/>
</svg>
